<?xml version="1.0" encoding="UTF-8" standalone="no"?> <!-- Created with Vectornator for iOS (http://vectornator.io/) --><!DOCTYPE svg PUBLIC "-//W3C//DTD SVG 1.1//EN" "http://www.w3.org/Graphics/SVG/1.1/DTD/svg11.dtd">
<svg style="fill-rule:evenodd;clip-rule:evenodd;stroke-linecap:round;stroke-linejoin:round;" xmlns:vectornator="http://vectornator.io" xmlns:xlink="http://www.w3.org/1999/xlink" xmlns="http://www.w3.org/2000/svg" xml:space="preserve" version="1.1" viewBox="0 0 165 78.2341">
<metadata>
<vectornator:setting key="DimensionsVisible" value="1"/>
<vectornator:setting key="IsolateActiveLayer" value="0"/>
<vectornator:setting key="New" value="1"/>
<vectornator:setting key="SnapToPoints" value="0"/>
<vectornator:setting key="OutlineMode" value="0"/>
<vectornator:setting key="RulersVisible" value="1"/>
<vectornator:setting key="GuidesVisible" value="1"/>
<vectornator:setting key="CMYKEnabledKey" value="0"/>
<vectornator:setting key="SnapToEdges" value="0"/>
<vectornator:setting key="DisplayWhiteBackground" value="0"/>
<vectornator:setting key="idAngle" value="45"/>
<vectornator:setting key="SnapToGuides" value="1"/>
<vectornator:setting key="Units" value="Pixels"/>
<vectornator:setting key="SnapToGrid" value="0"/>
<vectornator:setting key="DynamicGuides" value="0"/>
<vectornator:setting key="GridSpacing" value="36"/>
</metadata>
<defs/>
<g id="Layer 1" vectornator:layerName="Layer 1">
<path stroke="#000000" stroke-width="1" d="M7.62413+34.4201C7.54519+34.578+6.94305+35.5661+7.28034+35.5661C7.7279+35.5661+8.54292+33.6589+8.65552+33.3887C9.64496+31.014+10.4823+28.4746+11.6351+26.169C11.7534+25.9324+12.3177+24.6393+12.7811+24.7938C13.2056+24.9353+12.71+26.8098+12.6665+27.0858C12.368+28.9764+11.4623+33.3799+13.2395+34.6493C15.3558+36.1609+16.6949+31.9319+17.4796+32.1281C17.7794+32.203+18.1958+33.0377+18.511+33.2741C19.0373+33.6688+19.5826+33.5033+20.1154+33.5033C20.5598+33.5033+20.7857+33.9422+21.2614+33.8471C22.114+33.6766+23.2616+31.7643+23.6679+31.0967C23.9788+30.586+24.2102+30.0308+24.4701+29.4923C24.745+28.9229+25.0197+28.353+25.2723+27.7734C25.8817+26.3753+26.509+24.9801+26.9913+23.5332C27.0893+23.2393+27.3291+21.6996+27.7935+21.6996C27.8704+21.6996+27.936+22.5497+27.9081+22.731C27.7785+23.573+27.5153+24.399+27.4497+25.2522C27.3135+27.0226+26.9149+35.1506+29.7417+35.6807C32.0926+36.1215+33.3937+32.4091+34.4402+30.9821C34.5159+30.8789+35.1422+29.983+35.4716+30.0653C36.3293+30.2798+36.7215+31.7704+37.8782+31.8989C41.5456+32.3064+45.4616+31.7983+49.1088+31.5551C51.8781+31.3705+54.5188+31.4345+57.2453+30.7529" fill="none" stroke-linecap="round" opacity="1" stroke-linejoin="round"/>
<path stroke="#000000" stroke-width="1" d="M7.19381+50.4138C7.04457+50.7123+6.62884+52.3237+7.53812+52.0206C9.80581+51.2647+10.8557+48.4211+13.0471+47.5446C14.2769+47.0527+13.0851+51.6647+16.0312+50.7582C17.9476+50.1685+19.4215+47.6997+21.3107+47.4298C21.4243+47.4136+21.5861+47.338+21.655+47.4298C21.7468+47.5522+21.655+47.7358+21.655+47.8889C21.655+48.204+21.6892+48.05+21.5402+48.348C21.502+48.4245+21.4637+48.501+21.4255+48.5775C21.4137+48.601+18.9209+53.4991+20.9664+52.1354C24.3881+49.8543+26.5419+45.7599+30.1481+43.5276C30.4484+43.3417+32.4667+42.0893+32.9026+42.3798C33.0962+42.5089+32.8992+42.8642+32.7878+43.0685C32.1657+44.2089+31.05+45.2587+30.2628+46.2821C29.2034+47.6594+23.3936+53.5175+23.6061+55.0047C23.8223+56.518+28.5688+52.3077+28.8856+52.0206C32.5761+48.6761+35.8867+45.2634+40.1332+42.6094C40.4885+42.3873+43.5091+40.5041+43.5763+40.7731C43.7015+41.2739+42.3909+42.3902+42.1991+42.6094C40.7923+44.2172+39.0428+45.8058+37.9525+47.6593C37.4489+48.5154+36.2608+50.0844+37.1491+50.5286C38.328+51.118+42.5598+46.3477+43.3468+46.7412C43.533+46.8343+42.6177+48.0307+42.8877+48.2332C44.0492+49.1043+45.367+47.1888+46.3308+47.4298C46.4508+47.4598+47.6282+47.809+47.7081+47.8889C47.7405+47.9213+47.6034+48.4003+47.9376+48.2332C49.2294+47.5873+50.4986+45.1319+51.1512+44.1014C52.4844+41.9964+53.8214+39.9088+54.9387+37.6742C55.2219+37.1078+55.5069+36.5406+55.7421+35.9527C55.8319+35.728+56.0481+35.0345+55.9716+35.264C53.9574+41.3068+51.2774+46.8783+48.5115+52.5945C48.3609+52.9057+46.521+57.4149+46.3308+57.4149C46.0523+57.4149+46.3821+56.8255+46.5604+56.6115C47.3808+55.627+48.7025+54.8545+49.8887+54.4308C52.8671+53.3671+55.7722+52.9449+58.3818+50.9877" fill="none" stroke-linecap="round" opacity="1" stroke-linejoin="round"/>
<path stroke="#000000" stroke-width="1" d="M64.9758+42.0002C69.4047+41.3675+73.9369+41.5123+78.4023+41.2996C79.0915+41.2668+81.9169+40.942+82.9377+40.7896" fill="none" stroke-linecap="round" opacity="1" stroke-linejoin="round"/>
<path stroke="#000000" stroke-width="1" d="M83.9374+40.8486C85.2337+40.9324+88.3366+42.4739+88.7222+42.6241C93.963+44.6644+99.3337+46.3438+104.63+48.2195C118.385+53.0912+131.909+58.3671+145.267+64.2695C149.194+66.0048+153.008+68.0635+156.836+70.0122C157.785+70.4954+162.663+72.6842+162.042+72.3681" fill="none" stroke-linecap="round" opacity="1" stroke-linejoin="round"/>
<path stroke="#000000" stroke-width="1" d="M82.9389+40.7648C83.278+40.8668+83.6675+40.7553+84.0154+40.86" fill="none" stroke-linecap="round" opacity="1" stroke-linejoin="round"/>
</g>
</svg>
