<?xml version="1.0" encoding="UTF-8" standalone="no"?>
<!DOCTYPE svg PUBLIC "-//W3C//DTD SVG 1.1//EN" "http://www.w3.org/Graphics/SVG/1.1/DTD/svg11.dtd">
<svg width="100%" height="100%" viewBox="0 0 385 273" version="1.1" xmlns="http://www.w3.org/2000/svg" xmlns:xlink="http://www.w3.org/1999/xlink" xml:space="preserve" xmlns:serif="http://www.serif.com/" style="fill-rule:evenodd;clip-rule:evenodd;stroke-linecap:round;stroke-linejoin:round;stroke-miterlimit:1.5;">
    <g transform="matrix(1,0,0,1,-76.9576,-127.047)">
        <g transform="matrix(1,0,0,1,141.709,287.035)">
            <g>
                <circle cx="27.268" cy="106.072" r="6.083" style="fill:rgb(255,252,252);"/>
            </g>
        </g>
        <g transform="matrix(1,-4.04797e-16,1.11022e-16,1.76436,74.7638,107.496)">
            <g>
                <rect x="7.397" y="15.237" width="1.833" height="89.263" style="fill:white;stroke:white;stroke-width:0.44px;"/>
            </g>
        </g>
        <g transform="matrix(1.10385,0,0,1.2048,67.0934,93.9542)">
            <rect x="13.37" y="162.673" width="79.863" height="1.884" style="fill:white;"/>
        </g>
        <g transform="matrix(7.92893e-17,1.29489,-1.2048,7.37727e-17,365.988,272.641)">
            <rect x="13.37" y="162.673" width="79.863" height="1.884" style="fill:white;"/>
        </g>
        <g transform="matrix(1,0,0,1,11.1668,117.31)">
            <g>
                <rect x="70.999" y="17.07" width="55.171" height="2.566" style="fill:white;stroke:white;stroke-width:0.94px;"/>
            </g>
        </g>
        <g transform="matrix(0.991407,0,0,1.30435,41.6161,-37.4733)">
            <g>
                <g transform="matrix(30.26,0,0,23,102.385,142.233)">
                    <path d="M0.051,-0.345C0.051,-0.394 0.059,-0.441 0.074,-0.484C0.089,-0.527 0.111,-0.565 0.138,-0.597C0.165,-0.628 0.199,-0.653 0.237,-0.672C0.277,-0.691 0.319,-0.7 0.365,-0.7C0.444,-0.7 0.51,-0.677 0.564,-0.629C0.617,-0.583 0.651,-0.521 0.665,-0.444L0.576,-0.444C0.565,-0.502 0.541,-0.547 0.504,-0.58C0.468,-0.612 0.423,-0.628 0.369,-0.628C0.336,-0.628 0.305,-0.621 0.277,-0.607C0.249,-0.593 0.225,-0.574 0.205,-0.549C0.186,-0.524 0.171,-0.494 0.16,-0.459C0.149,-0.424 0.144,-0.386 0.144,-0.345C0.144,-0.26 0.166,-0.191 0.209,-0.14C0.252,-0.088 0.308,-0.062 0.377,-0.062C0.429,-0.062 0.473,-0.078 0.51,-0.11C0.547,-0.141 0.571,-0.186 0.582,-0.244L0.671,-0.244C0.657,-0.167 0.623,-0.106 0.569,-0.059C0.514,-0.013 0.448,0.01 0.369,0.01C0.323,0.01 0.28,0.001 0.241,-0.016C0.202,-0.033 0.168,-0.058 0.14,-0.089C0.112,-0.12 0.09,-0.158 0.075,-0.202C0.059,-0.245 0.051,-0.293 0.051,-0.345Z" style="fill:white;fill-rule:nonzero;"/>
                </g>
                <g transform="matrix(30.26,0,0,23,123.9,142.233)">
                    <path d="M0.155,-0.19C0.155,-0.149 0.164,-0.117 0.182,-0.094C0.2,-0.07 0.229,-0.059 0.268,-0.059C0.31,-0.059 0.339,-0.071 0.356,-0.094C0.373,-0.117 0.381,-0.147 0.381,-0.182L0.381,-0.5L0.464,-0.5L0.464,-0L0.384,-0L0.384,-0.098L0.382,-0.098C0.369,-0.064 0.351,-0.038 0.328,-0.019C0.304,0 0.274,0.01 0.239,0.01C0.212,0.01 0.188,0.005 0.167,-0.004C0.146,-0.013 0.128,-0.025 0.114,-0.04C0.1,-0.055 0.09,-0.074 0.083,-0.095C0.076,-0.116 0.072,-0.138 0.072,-0.161L0.072,-0.5L0.155,-0.5L0.155,-0.19Z" style="fill:white;fill-rule:nonzero;"/>
                </g>
                <g transform="matrix(30.26,0,0,23,140.24,142.233)">
                    <path d="M0.371,-0.131C0.371,-0.148 0.365,-0.163 0.352,-0.176C0.339,-0.189 0.313,-0.2 0.275,-0.209L0.208,-0.224C0.16,-0.235 0.122,-0.251 0.095,-0.274C0.068,-0.297 0.054,-0.328 0.054,-0.367C0.054,-0.408 0.072,-0.443 0.107,-0.469C0.142,-0.497 0.187,-0.51 0.24,-0.51C0.297,-0.51 0.344,-0.495 0.381,-0.466C0.418,-0.436 0.438,-0.398 0.441,-0.352L0.358,-0.352C0.355,-0.381 0.343,-0.403 0.323,-0.42C0.302,-0.436 0.275,-0.444 0.24,-0.444C0.211,-0.444 0.187,-0.438 0.166,-0.427C0.145,-0.415 0.135,-0.398 0.135,-0.375C0.135,-0.354 0.143,-0.339 0.16,-0.33C0.176,-0.321 0.203,-0.312 0.24,-0.303L0.307,-0.288C0.355,-0.277 0.391,-0.259 0.415,-0.234C0.439,-0.209 0.451,-0.176 0.451,-0.136C0.451,-0.093 0.434,-0.058 0.4,-0.031C0.365,-0.004 0.316,0.01 0.251,0.01C0.218,0.01 0.189,0.005 0.164,-0.006C0.138,-0.017 0.116,-0.031 0.099,-0.048C0.081,-0.065 0.067,-0.084 0.057,-0.107C0.046,-0.129 0.04,-0.152 0.039,-0.175L0.122,-0.175C0.125,-0.141 0.138,-0.113 0.162,-0.09C0.186,-0.067 0.217,-0.056 0.254,-0.056C0.286,-0.056 0.314,-0.063 0.337,-0.076C0.36,-0.089 0.371,-0.108 0.371,-0.131Z" style="fill:white;fill-rule:nonzero;"/>
                </g>
                <g transform="matrix(30.26,0,0,23,154.916,142.233)">
                    <path d="M0.112,-0.434L0.021,-0.434L0.021,-0.5L0.112,-0.5L0.112,-0.614L0.195,-0.614L0.195,-0.5L0.322,-0.5L0.322,-0.434L0.195,-0.434L0.195,-0.121C0.195,-0.102 0.199,-0.088 0.207,-0.079C0.216,-0.07 0.23,-0.066 0.251,-0.066L0.318,-0.066L0.318,-0L0.228,-0C0.186,-0 0.156,-0.01 0.139,-0.029C0.121,-0.048 0.112,-0.076 0.112,-0.112L0.112,-0.434Z" style="fill:white;fill-rule:nonzero;"/>
                </g>
                <g transform="matrix(30.26,0,0,23,165.174,142.233)">
                    <path d="M0.285,0.01C0.248,0.01 0.214,0.003 0.185,-0.012C0.155,-0.027 0.13,-0.046 0.109,-0.07C0.088,-0.094 0.073,-0.122 0.062,-0.153C0.051,-0.184 0.045,-0.217 0.045,-0.25C0.045,-0.283 0.051,-0.316 0.062,-0.347C0.073,-0.378 0.088,-0.406 0.109,-0.43C0.13,-0.454 0.155,-0.473 0.185,-0.488C0.214,-0.503 0.248,-0.51 0.285,-0.51C0.322,-0.51 0.356,-0.503 0.386,-0.488C0.415,-0.473 0.44,-0.454 0.461,-0.43C0.482,-0.406 0.498,-0.378 0.508,-0.347C0.52,-0.316 0.525,-0.283 0.525,-0.25C0.525,-0.217 0.52,-0.184 0.508,-0.153C0.498,-0.122 0.482,-0.094 0.461,-0.07C0.44,-0.046 0.415,-0.027 0.386,-0.012C0.356,0.003 0.322,0.01 0.285,0.01ZM0.285,-0.056C0.333,-0.056 0.37,-0.075 0.396,-0.112C0.422,-0.149 0.435,-0.195 0.435,-0.25C0.435,-0.305 0.422,-0.352 0.396,-0.389C0.37,-0.426 0.333,-0.444 0.285,-0.444C0.237,-0.444 0.2,-0.426 0.174,-0.389C0.148,-0.352 0.135,-0.305 0.135,-0.25C0.135,-0.195 0.148,-0.149 0.174,-0.112C0.2,-0.075 0.237,-0.056 0.285,-0.056Z" style="fill:white;fill-rule:nonzero;"/>
                </g>
                <g transform="matrix(30.26,0,0,23,182.423,142.233)">
                    <path d="M0.159,-0.318L0.159,-0L0.076,-0L0.076,-0.5L0.156,-0.5L0.156,-0.402L0.158,-0.402C0.171,-0.436 0.189,-0.463 0.213,-0.482C0.236,-0.5 0.266,-0.51 0.301,-0.51C0.343,-0.51 0.377,-0.5 0.404,-0.48C0.43,-0.459 0.448,-0.433 0.459,-0.402L0.46,-0.402C0.473,-0.436 0.492,-0.463 0.518,-0.482C0.544,-0.5 0.575,-0.51 0.61,-0.51C0.637,-0.51 0.662,-0.505 0.683,-0.497C0.704,-0.488 0.721,-0.475 0.735,-0.46C0.749,-0.445 0.759,-0.427 0.767,-0.406C0.774,-0.385 0.777,-0.362 0.777,-0.339L0.777,-0L0.694,-0L0.694,-0.31C0.694,-0.351 0.685,-0.384 0.667,-0.406C0.649,-0.43 0.62,-0.441 0.581,-0.441C0.539,-0.441 0.51,-0.429 0.493,-0.406C0.476,-0.383 0.468,-0.353 0.468,-0.318L0.468,-0L0.385,-0L0.385,-0.31C0.385,-0.351 0.376,-0.384 0.358,-0.406C0.34,-0.43 0.311,-0.441 0.272,-0.441C0.23,-0.441 0.201,-0.429 0.184,-0.406C0.167,-0.383 0.159,-0.353 0.159,-0.318Z" style="fill:white;fill-rule:nonzero;"/>
                </g>
                <g transform="matrix(30.26,0,0,23,215.527,142.233)">
                    <path d="M0.159,-0.5L0.159,0.058C0.159,0.094 0.15,0.122 0.133,0.141C0.115,0.16 0.085,0.17 0.043,0.17L-0.015,0.17L-0.015,0.104L0.02,0.104C0.041,0.104 0.055,0.1 0.064,0.091C0.072,0.082 0.076,0.068 0.076,0.049L0.076,-0.5L0.159,-0.5ZM0.069,-0.593L0.069,-0.69L0.166,-0.69L0.166,-0.593L0.069,-0.593Z" style="fill:white;fill-rule:nonzero;"/>
                </g>
                <g transform="matrix(30.26,0,0,23,222.638,142.233)">
                    <path d="M0.155,-0.19C0.155,-0.149 0.164,-0.117 0.182,-0.094C0.2,-0.07 0.229,-0.059 0.268,-0.059C0.31,-0.059 0.339,-0.071 0.356,-0.094C0.373,-0.117 0.381,-0.147 0.381,-0.182L0.381,-0.5L0.464,-0.5L0.464,-0L0.384,-0L0.384,-0.098L0.382,-0.098C0.369,-0.064 0.351,-0.038 0.328,-0.019C0.304,0 0.274,0.01 0.239,0.01C0.212,0.01 0.188,0.005 0.167,-0.004C0.146,-0.013 0.128,-0.025 0.114,-0.04C0.1,-0.055 0.09,-0.074 0.083,-0.095C0.076,-0.116 0.072,-0.138 0.072,-0.161L0.072,-0.5L0.155,-0.5L0.155,-0.19Z" style="fill:white;fill-rule:nonzero;"/>
                </g>
                <g transform="matrix(30.26,0,0,23,238.979,142.233)">
                    <path d="M0.39,-0.31C0.39,-0.351 0.381,-0.384 0.363,-0.406C0.344,-0.43 0.315,-0.441 0.275,-0.441C0.234,-0.441 0.205,-0.429 0.187,-0.406C0.168,-0.383 0.159,-0.353 0.159,-0.318L0.159,-0L0.076,-0L0.076,-0.5L0.156,-0.5L0.156,-0.402L0.158,-0.402C0.171,-0.436 0.19,-0.463 0.216,-0.482C0.241,-0.5 0.272,-0.51 0.309,-0.51C0.336,-0.51 0.359,-0.505 0.38,-0.497C0.401,-0.488 0.418,-0.475 0.432,-0.46C0.445,-0.445 0.456,-0.427 0.463,-0.406C0.469,-0.385 0.473,-0.362 0.473,-0.339L0.473,-0L0.39,-0L0.39,-0.31Z" style="fill:white;fill-rule:nonzero;"/>
                </g>
                <g transform="matrix(30.26,0,0,23,255.44,142.233)">
                    <path d="M0.046,-0.25C0.046,-0.283 0.051,-0.316 0.063,-0.347C0.074,-0.378 0.089,-0.406 0.109,-0.43C0.129,-0.454 0.153,-0.473 0.182,-0.488C0.21,-0.503 0.242,-0.51 0.277,-0.51C0.337,-0.51 0.386,-0.495 0.424,-0.465C0.461,-0.434 0.485,-0.39 0.496,-0.333L0.413,-0.333C0.406,-0.373 0.39,-0.402 0.367,-0.419C0.343,-0.436 0.315,-0.444 0.282,-0.444C0.259,-0.444 0.238,-0.439 0.22,-0.429C0.201,-0.418 0.186,-0.404 0.173,-0.387C0.161,-0.369 0.152,-0.348 0.146,-0.325C0.139,-0.302 0.136,-0.277 0.136,-0.25C0.136,-0.223 0.139,-0.197 0.146,-0.173C0.153,-0.15 0.162,-0.129 0.175,-0.112C0.188,-0.095 0.203,-0.081 0.223,-0.071C0.242,-0.061 0.263,-0.056 0.288,-0.056C0.32,-0.056 0.348,-0.065 0.372,-0.083C0.395,-0.1 0.411,-0.129 0.418,-0.169L0.501,-0.169C0.49,-0.112 0.466,-0.068 0.428,-0.037C0.39,-0.006 0.341,0.01 0.281,0.01C0.245,0.01 0.213,0.003 0.184,-0.011C0.155,-0.025 0.13,-0.044 0.11,-0.068C0.089,-0.091 0.074,-0.119 0.063,-0.151C0.051,-0.182 0.046,-0.215 0.046,-0.25Z" style="fill:white;fill-rule:nonzero;"/>
                </g>
                <g transform="matrix(30.26,0,0,23,271.538,142.233)">
                    <path d="M0.112,-0.434L0.021,-0.434L0.021,-0.5L0.112,-0.5L0.112,-0.614L0.195,-0.614L0.195,-0.5L0.322,-0.5L0.322,-0.434L0.195,-0.434L0.195,-0.121C0.195,-0.102 0.199,-0.088 0.207,-0.079C0.216,-0.07 0.23,-0.066 0.251,-0.066L0.318,-0.066L0.318,-0L0.228,-0C0.186,-0 0.156,-0.01 0.139,-0.029C0.121,-0.048 0.112,-0.076 0.112,-0.112L0.112,-0.434Z" style="fill:white;fill-rule:nonzero;"/>
                </g>
                <g transform="matrix(30.26,0,0,23,282.008,142.233)">
                    <path d="M0.159,-0.5L0.159,-0L0.076,-0L0.076,-0.5L0.159,-0.5ZM0.069,-0.593L0.069,-0.69L0.166,-0.69L0.166,-0.593L0.069,-0.593Z" style="fill:white;fill-rule:nonzero;"/>
                </g>
                <g transform="matrix(30.26,0,0,23,289.12,142.233)">
                    <path d="M0.285,0.01C0.248,0.01 0.214,0.003 0.185,-0.012C0.155,-0.027 0.13,-0.046 0.109,-0.07C0.088,-0.094 0.073,-0.122 0.062,-0.153C0.051,-0.184 0.045,-0.217 0.045,-0.25C0.045,-0.283 0.051,-0.316 0.062,-0.347C0.073,-0.378 0.088,-0.406 0.109,-0.43C0.13,-0.454 0.155,-0.473 0.185,-0.488C0.214,-0.503 0.248,-0.51 0.285,-0.51C0.322,-0.51 0.356,-0.503 0.386,-0.488C0.415,-0.473 0.44,-0.454 0.461,-0.43C0.482,-0.406 0.498,-0.378 0.508,-0.347C0.52,-0.316 0.525,-0.283 0.525,-0.25C0.525,-0.217 0.52,-0.184 0.508,-0.153C0.498,-0.122 0.482,-0.094 0.461,-0.07C0.44,-0.046 0.415,-0.027 0.386,-0.012C0.356,0.003 0.322,0.01 0.285,0.01ZM0.285,-0.056C0.333,-0.056 0.37,-0.075 0.396,-0.112C0.422,-0.149 0.435,-0.195 0.435,-0.25C0.435,-0.305 0.422,-0.352 0.396,-0.389C0.37,-0.426 0.333,-0.444 0.285,-0.444C0.237,-0.444 0.2,-0.426 0.174,-0.389C0.148,-0.352 0.135,-0.305 0.135,-0.25C0.135,-0.195 0.148,-0.149 0.174,-0.112C0.2,-0.075 0.237,-0.056 0.285,-0.056Z" style="fill:white;fill-rule:nonzero;"/>
                </g>
                <g transform="matrix(30.26,0,0,23,306.368,142.233)">
                    <path d="M0.39,-0.31C0.39,-0.351 0.381,-0.384 0.363,-0.406C0.344,-0.43 0.315,-0.441 0.275,-0.441C0.234,-0.441 0.205,-0.429 0.187,-0.406C0.168,-0.383 0.159,-0.353 0.159,-0.318L0.159,-0L0.076,-0L0.076,-0.5L0.156,-0.5L0.156,-0.402L0.158,-0.402C0.171,-0.436 0.19,-0.463 0.216,-0.482C0.241,-0.5 0.272,-0.51 0.309,-0.51C0.336,-0.51 0.359,-0.505 0.38,-0.497C0.401,-0.488 0.418,-0.475 0.432,-0.46C0.445,-0.445 0.456,-0.427 0.463,-0.406C0.469,-0.385 0.473,-0.362 0.473,-0.339L0.473,-0L0.39,-0L0.39,-0.31Z" style="fill:white;fill-rule:nonzero;"/>
                </g>
                <g transform="matrix(30.26,0,0,23,330.273,142.233)">
                    <path d="M0.543,-0.25C0.543,-0.216 0.539,-0.183 0.53,-0.152C0.521,-0.12 0.507,-0.092 0.489,-0.069C0.471,-0.045 0.449,-0.026 0.422,-0.012C0.395,0.003 0.363,0.01 0.328,0.01C0.289,0.01 0.255,-0 0.226,-0.021C0.197,-0.042 0.175,-0.07 0.161,-0.106L0.159,-0.106L0.159,-0L0.076,-0L0.076,-0.69L0.159,-0.69L0.159,-0.394L0.161,-0.394C0.175,-0.43 0.197,-0.458 0.226,-0.479C0.255,-0.5 0.289,-0.51 0.328,-0.51C0.363,-0.51 0.395,-0.503 0.422,-0.489C0.449,-0.474 0.471,-0.455 0.489,-0.432C0.507,-0.408 0.521,-0.38 0.53,-0.348C0.539,-0.317 0.543,-0.284 0.543,-0.25ZM0.453,-0.25C0.453,-0.305 0.44,-0.352 0.414,-0.389C0.388,-0.426 0.351,-0.444 0.303,-0.444C0.255,-0.444 0.218,-0.426 0.193,-0.389C0.168,-0.352 0.155,-0.305 0.155,-0.25C0.155,-0.195 0.168,-0.149 0.193,-0.112C0.218,-0.075 0.255,-0.056 0.303,-0.056C0.351,-0.056 0.388,-0.075 0.414,-0.112C0.44,-0.149 0.453,-0.195 0.453,-0.25Z" style="fill:white;fill-rule:nonzero;"/>
                </g>
                <g transform="matrix(30.26,0,0,23,348.127,142.233)">
                    <path d="M0.285,0.01C0.248,0.01 0.214,0.003 0.185,-0.012C0.155,-0.027 0.13,-0.046 0.109,-0.07C0.088,-0.094 0.073,-0.122 0.062,-0.153C0.051,-0.184 0.045,-0.217 0.045,-0.25C0.045,-0.283 0.051,-0.316 0.062,-0.347C0.073,-0.378 0.088,-0.406 0.109,-0.43C0.13,-0.454 0.155,-0.473 0.185,-0.488C0.214,-0.503 0.248,-0.51 0.285,-0.51C0.322,-0.51 0.356,-0.503 0.386,-0.488C0.415,-0.473 0.44,-0.454 0.461,-0.43C0.482,-0.406 0.498,-0.378 0.508,-0.347C0.52,-0.316 0.525,-0.283 0.525,-0.25C0.525,-0.217 0.52,-0.184 0.508,-0.153C0.498,-0.122 0.482,-0.094 0.461,-0.07C0.44,-0.046 0.415,-0.027 0.386,-0.012C0.356,0.003 0.322,0.01 0.285,0.01ZM0.285,-0.056C0.333,-0.056 0.37,-0.075 0.396,-0.112C0.422,-0.149 0.435,-0.195 0.435,-0.25C0.435,-0.305 0.422,-0.352 0.396,-0.389C0.37,-0.426 0.333,-0.444 0.285,-0.444C0.237,-0.444 0.2,-0.426 0.174,-0.389C0.148,-0.352 0.135,-0.305 0.135,-0.25C0.135,-0.195 0.148,-0.149 0.174,-0.112C0.2,-0.075 0.237,-0.056 0.285,-0.056Z" style="fill:white;fill-rule:nonzero;"/>
                </g>
                <g transform="matrix(30.26,0,0,23,364.649,142.233)">
                    <path d="M0.397,-0L0.25,-0.21L0.102,-0L0.009,-0L0.199,-0.268L0.034,-0.5L0.127,-0.5L0.25,-0.326L0.372,-0.5L0.465,-0.5L0.3,-0.268L0.49,-0L0.397,-0Z" style="fill:white;fill-rule:nonzero;"/>
                </g>
                <g transform="matrix(30.26,0,0,23,386.738,142.233)">
                    <path d="M0.113,-0.5L0.113,-0.578C0.113,-0.614 0.122,-0.642 0.14,-0.661C0.157,-0.68 0.187,-0.69 0.229,-0.69L0.319,-0.69L0.319,-0.624L0.252,-0.624C0.231,-0.624 0.217,-0.62 0.209,-0.611C0.2,-0.602 0.196,-0.588 0.196,-0.569L0.196,-0.5L0.323,-0.5L0.323,-0.434L0.196,-0.434L0.196,-0L0.113,-0L0.113,-0.434L0.022,-0.434L0.022,-0.5L0.113,-0.5Z" style="fill:white;fill-rule:nonzero;"/>
                </g>
                <g transform="matrix(30.26,0,0,23,396.512,142.233)">
                    <path d="M0.285,0.01C0.248,0.01 0.214,0.003 0.185,-0.012C0.155,-0.027 0.13,-0.046 0.109,-0.07C0.088,-0.094 0.073,-0.122 0.062,-0.153C0.051,-0.184 0.045,-0.217 0.045,-0.25C0.045,-0.283 0.051,-0.316 0.062,-0.347C0.073,-0.378 0.088,-0.406 0.109,-0.43C0.13,-0.454 0.155,-0.473 0.185,-0.488C0.214,-0.503 0.248,-0.51 0.285,-0.51C0.322,-0.51 0.356,-0.503 0.386,-0.488C0.415,-0.473 0.44,-0.454 0.461,-0.43C0.482,-0.406 0.498,-0.378 0.508,-0.347C0.52,-0.316 0.525,-0.283 0.525,-0.25C0.525,-0.217 0.52,-0.184 0.508,-0.153C0.498,-0.122 0.482,-0.094 0.461,-0.07C0.44,-0.046 0.415,-0.027 0.386,-0.012C0.356,0.003 0.322,0.01 0.285,0.01ZM0.285,-0.056C0.333,-0.056 0.37,-0.075 0.396,-0.112C0.422,-0.149 0.435,-0.195 0.435,-0.25C0.435,-0.305 0.422,-0.352 0.396,-0.389C0.37,-0.426 0.333,-0.444 0.285,-0.444C0.237,-0.444 0.2,-0.426 0.174,-0.389C0.148,-0.352 0.135,-0.305 0.135,-0.25C0.135,-0.195 0.148,-0.149 0.174,-0.112C0.2,-0.075 0.237,-0.056 0.285,-0.056Z" style="fill:white;fill-rule:nonzero;"/>
                </g>
                <g transform="matrix(30.26,0,0,23,413.761,142.233)">
                    <path d="M0.159,-0.3L0.159,-0L0.076,-0L0.076,-0.5L0.156,-0.5L0.156,-0.402L0.158,-0.402C0.171,-0.436 0.19,-0.463 0.216,-0.482C0.241,-0.5 0.272,-0.51 0.309,-0.51L0.309,-0.42L0.291,-0.42C0.251,-0.42 0.219,-0.411 0.195,-0.394C0.171,-0.376 0.159,-0.345 0.159,-0.3Z" style="fill:white;fill-rule:nonzero;"/>
                </g>
                <g transform="matrix(30.26,0,0,23,102.385,166.521)">
                    <path d="M0.39,-0.31C0.39,-0.351 0.381,-0.384 0.363,-0.406C0.344,-0.43 0.315,-0.441 0.275,-0.441C0.234,-0.441 0.205,-0.429 0.187,-0.406C0.168,-0.383 0.159,-0.353 0.159,-0.318L0.159,-0L0.076,-0L0.076,-0.69L0.156,-0.69L0.156,-0.402L0.158,-0.402C0.171,-0.436 0.19,-0.463 0.216,-0.482C0.241,-0.5 0.272,-0.51 0.309,-0.51C0.336,-0.51 0.359,-0.505 0.38,-0.497C0.401,-0.488 0.418,-0.475 0.432,-0.46C0.445,-0.445 0.456,-0.427 0.463,-0.406C0.469,-0.385 0.473,-0.362 0.473,-0.339L0.473,-0L0.39,-0L0.39,-0.31Z" style="fill:white;fill-rule:nonzero;"/>
                </g>
                <g transform="matrix(30.26,0,0,23,118.846,166.521)">
                    <path d="M0.159,-0.5L0.159,-0L0.076,-0L0.076,-0.5L0.159,-0.5ZM0.069,-0.593L0.069,-0.69L0.166,-0.69L0.166,-0.593L0.069,-0.593Z" style="fill:white;fill-rule:nonzero;"/>
                </g>
                <g transform="matrix(30.26,0,0,23,125.958,166.521)">
                    <path d="M0.432,-0.017L0.432,-0.126L0.43,-0.126C0.416,-0.09 0.395,-0.062 0.366,-0.041C0.337,-0.02 0.302,-0.01 0.263,-0.01C0.228,-0.01 0.197,-0.017 0.17,-0.029C0.142,-0.043 0.12,-0.06 0.102,-0.083C0.084,-0.106 0.07,-0.132 0.062,-0.163C0.053,-0.194 0.048,-0.226 0.048,-0.26C0.048,-0.294 0.053,-0.326 0.062,-0.357C0.07,-0.388 0.084,-0.414 0.102,-0.437C0.12,-0.46 0.142,-0.477 0.17,-0.491C0.197,-0.503 0.228,-0.51 0.263,-0.51C0.302,-0.51 0.337,-0.5 0.366,-0.479C0.395,-0.458 0.416,-0.43 0.43,-0.394L0.432,-0.394L0.432,-0.5L0.515,-0.5L0.515,-0.017C0.515,0.039 0.496,0.086 0.459,0.123C0.422,0.161 0.367,0.18 0.295,0.18C0.229,0.18 0.178,0.165 0.142,0.135C0.106,0.105 0.085,0.065 0.078,0.014L0.161,0.014C0.166,0.049 0.182,0.075 0.207,0.09C0.233,0.106 0.262,0.114 0.295,0.114C0.334,0.114 0.366,0.103 0.393,0.081C0.419,0.06 0.432,0.027 0.432,-0.017ZM0.138,-0.26C0.138,-0.205 0.151,-0.16 0.177,-0.127C0.203,-0.093 0.24,-0.076 0.288,-0.076C0.336,-0.076 0.373,-0.093 0.398,-0.127C0.423,-0.16 0.436,-0.205 0.436,-0.26C0.436,-0.315 0.423,-0.36 0.398,-0.394C0.373,-0.427 0.336,-0.444 0.288,-0.444C0.24,-0.444 0.203,-0.427 0.177,-0.394C0.151,-0.36 0.138,-0.315 0.138,-0.26Z" style="fill:white;fill-rule:nonzero;"/>
                </g>
                <g transform="matrix(30.26,0,0,23,143.841,166.521)">
                    <path d="M0.39,-0.31C0.39,-0.351 0.381,-0.384 0.363,-0.406C0.344,-0.43 0.315,-0.441 0.275,-0.441C0.234,-0.441 0.205,-0.429 0.187,-0.406C0.168,-0.383 0.159,-0.353 0.159,-0.318L0.159,-0L0.076,-0L0.076,-0.69L0.156,-0.69L0.156,-0.402L0.158,-0.402C0.171,-0.436 0.19,-0.463 0.216,-0.482C0.241,-0.5 0.272,-0.51 0.309,-0.51C0.336,-0.51 0.359,-0.505 0.38,-0.497C0.401,-0.488 0.418,-0.475 0.432,-0.46C0.445,-0.445 0.456,-0.427 0.463,-0.406C0.469,-0.385 0.473,-0.362 0.473,-0.339L0.473,-0L0.39,-0L0.39,-0.31Z" style="fill:white;fill-rule:nonzero;"/>
                </g>
                <g transform="matrix(30.26,0,0,23,167.747,166.521)">
                    <path d="M0.023,-0.5L0.109,-0.5L0.255,-0.004L0.401,-0.5L0.487,-0.5L0.34,-0L0.17,-0L0.023,-0.5Z" style="fill:white;fill-rule:nonzero;"/>
                </g>
                <g transform="matrix(30.26,0,0,23,182.877,166.521)">
                    <path d="M0.285,0.01C0.248,0.01 0.214,0.003 0.185,-0.012C0.155,-0.027 0.13,-0.046 0.109,-0.07C0.088,-0.094 0.073,-0.122 0.062,-0.153C0.051,-0.184 0.045,-0.217 0.045,-0.25C0.045,-0.283 0.051,-0.316 0.062,-0.347C0.073,-0.378 0.088,-0.406 0.109,-0.43C0.13,-0.454 0.155,-0.473 0.185,-0.488C0.214,-0.503 0.248,-0.51 0.285,-0.51C0.322,-0.51 0.356,-0.503 0.386,-0.488C0.415,-0.473 0.44,-0.454 0.461,-0.43C0.482,-0.406 0.498,-0.378 0.508,-0.347C0.52,-0.316 0.525,-0.283 0.525,-0.25C0.525,-0.217 0.52,-0.184 0.508,-0.153C0.498,-0.122 0.482,-0.094 0.461,-0.07C0.44,-0.046 0.415,-0.027 0.386,-0.012C0.356,0.003 0.322,0.01 0.285,0.01ZM0.285,-0.056C0.333,-0.056 0.37,-0.075 0.396,-0.112C0.422,-0.149 0.435,-0.195 0.435,-0.25C0.435,-0.305 0.422,-0.352 0.396,-0.389C0.37,-0.426 0.333,-0.444 0.285,-0.444C0.237,-0.444 0.2,-0.426 0.174,-0.389C0.148,-0.352 0.135,-0.305 0.135,-0.25C0.135,-0.195 0.148,-0.149 0.174,-0.112C0.2,-0.075 0.237,-0.056 0.285,-0.056Z" style="fill:white;fill-rule:nonzero;"/>
                </g>
                <g transform="matrix(30.26,0,0,23,200.125,166.521)">
                    <rect x="0.076" y="-0.69" width="0.083" height="0.69" style="fill:white;"/>
                </g>
                <g transform="matrix(30.26,0,0,23,207.236,166.521)">
                    <path d="M0.112,-0.434L0.021,-0.434L0.021,-0.5L0.112,-0.5L0.112,-0.614L0.195,-0.614L0.195,-0.5L0.322,-0.5L0.322,-0.434L0.195,-0.434L0.195,-0.121C0.195,-0.102 0.199,-0.088 0.207,-0.079C0.216,-0.07 0.23,-0.066 0.251,-0.066L0.318,-0.066L0.318,-0L0.228,-0C0.186,-0 0.156,-0.01 0.139,-0.029C0.121,-0.048 0.112,-0.076 0.112,-0.112L0.112,-0.434Z" style="fill:white;fill-rule:nonzero;"/>
                </g>
                <g transform="matrix(30.26,0,0,23,217.706,166.521)">
                    <path d="M0.377,-0.323C0.377,-0.36 0.367,-0.39 0.346,-0.411C0.326,-0.433 0.297,-0.444 0.258,-0.444C0.22,-0.444 0.191,-0.434 0.172,-0.415C0.153,-0.396 0.142,-0.371 0.141,-0.342L0.058,-0.342C0.059,-0.365 0.065,-0.386 0.074,-0.407C0.083,-0.428 0.096,-0.446 0.113,-0.461C0.13,-0.475 0.15,-0.488 0.174,-0.497C0.199,-0.505 0.227,-0.51 0.258,-0.51C0.285,-0.51 0.311,-0.506 0.336,-0.499C0.361,-0.492 0.382,-0.48 0.401,-0.464C0.419,-0.447 0.433,-0.426 0.444,-0.4C0.455,-0.373 0.46,-0.341 0.46,-0.304L0.46,-0L0.38,-0L0.38,-0.098L0.378,-0.098C0.365,-0.064 0.345,-0.038 0.316,-0.019C0.287,0 0.254,0.01 0.215,0.01C0.191,0.01 0.169,0.006 0.148,-0.001C0.127,-0.008 0.108,-0.018 0.092,-0.031C0.076,-0.044 0.064,-0.061 0.055,-0.08C0.046,-0.099 0.041,-0.121 0.041,-0.145C0.041,-0.17 0.046,-0.192 0.057,-0.21C0.068,-0.227 0.082,-0.242 0.1,-0.253C0.117,-0.264 0.138,-0.273 0.162,-0.279C0.185,-0.285 0.21,-0.289 0.237,-0.292L0.377,-0.307L0.377,-0.323ZM0.235,-0.056C0.279,-0.056 0.314,-0.069 0.339,-0.096C0.364,-0.123 0.377,-0.163 0.377,-0.217L0.377,-0.244L0.244,-0.229C0.207,-0.225 0.179,-0.216 0.16,-0.202C0.141,-0.188 0.131,-0.168 0.131,-0.141C0.131,-0.116 0.141,-0.096 0.161,-0.08C0.181,-0.064 0.206,-0.056 0.235,-0.056Z" style="fill:white;fill-rule:nonzero;"/>
                </g>
                <g transform="matrix(30.26,0,0,23,233.774,166.521)">
                    <path d="M0.432,-0.017L0.432,-0.126L0.43,-0.126C0.416,-0.09 0.395,-0.062 0.366,-0.041C0.337,-0.02 0.302,-0.01 0.263,-0.01C0.228,-0.01 0.197,-0.017 0.17,-0.029C0.142,-0.043 0.12,-0.06 0.102,-0.083C0.084,-0.106 0.07,-0.132 0.062,-0.163C0.053,-0.194 0.048,-0.226 0.048,-0.26C0.048,-0.294 0.053,-0.326 0.062,-0.357C0.07,-0.388 0.084,-0.414 0.102,-0.437C0.12,-0.46 0.142,-0.477 0.17,-0.491C0.197,-0.503 0.228,-0.51 0.263,-0.51C0.302,-0.51 0.337,-0.5 0.366,-0.479C0.395,-0.458 0.416,-0.43 0.43,-0.394L0.432,-0.394L0.432,-0.5L0.515,-0.5L0.515,-0.017C0.515,0.039 0.496,0.086 0.459,0.123C0.422,0.161 0.367,0.18 0.295,0.18C0.229,0.18 0.178,0.165 0.142,0.135C0.106,0.105 0.085,0.065 0.078,0.014L0.161,0.014C0.166,0.049 0.182,0.075 0.207,0.09C0.233,0.106 0.262,0.114 0.295,0.114C0.334,0.114 0.366,0.103 0.393,0.081C0.419,0.06 0.432,0.027 0.432,-0.017ZM0.138,-0.26C0.138,-0.205 0.151,-0.16 0.177,-0.127C0.203,-0.093 0.24,-0.076 0.288,-0.076C0.336,-0.076 0.373,-0.093 0.398,-0.127C0.423,-0.16 0.436,-0.205 0.436,-0.26C0.436,-0.315 0.423,-0.36 0.398,-0.394C0.373,-0.427 0.336,-0.444 0.288,-0.444C0.24,-0.444 0.203,-0.427 0.177,-0.394C0.151,-0.36 0.138,-0.315 0.138,-0.26Z" style="fill:white;fill-rule:nonzero;"/>
                </g>
                <g transform="matrix(30.26,0,0,23,251.658,166.521)">
                    <path d="M0.493,-0.158C0.488,-0.136 0.481,-0.115 0.471,-0.095C0.461,-0.074 0.447,-0.056 0.43,-0.041C0.413,-0.026 0.392,-0.013 0.367,-0.004C0.342,0.005 0.312,0.01 0.278,0.01C0.241,0.01 0.208,0.003 0.179,-0.011C0.15,-0.025 0.126,-0.044 0.107,-0.068C0.087,-0.091 0.072,-0.119 0.062,-0.151C0.051,-0.182 0.046,-0.215 0.046,-0.25C0.046,-0.285 0.051,-0.318 0.061,-0.349C0.07,-0.381 0.085,-0.409 0.104,-0.433C0.123,-0.456 0.147,-0.475 0.175,-0.489C0.204,-0.503 0.237,-0.51 0.274,-0.51C0.311,-0.51 0.345,-0.503 0.374,-0.489C0.403,-0.475 0.428,-0.456 0.448,-0.431C0.467,-0.406 0.482,-0.376 0.491,-0.341C0.5,-0.306 0.502,-0.267 0.499,-0.225L0.13,-0.225C0.132,-0.173 0.147,-0.132 0.175,-0.102C0.203,-0.071 0.24,-0.056 0.286,-0.056C0.307,-0.056 0.326,-0.059 0.341,-0.066C0.356,-0.073 0.368,-0.081 0.377,-0.092C0.386,-0.102 0.393,-0.113 0.398,-0.125C0.403,-0.137 0.407,-0.148 0.41,-0.158L0.493,-0.158ZM0.274,-0.444C0.23,-0.444 0.196,-0.43 0.172,-0.401C0.148,-0.372 0.134,-0.336 0.13,-0.291L0.417,-0.291C0.414,-0.336 0.4,-0.372 0.376,-0.401C0.352,-0.43 0.318,-0.444 0.274,-0.444Z" style="fill:white;fill-rule:nonzero;"/>
                </g>
                <g transform="matrix(30.26,0,0,23,275.593,166.521)">
                    <path d="M0.341,-0.5L0.505,-0.5L0.604,-0.004L0.727,-0.5L0.813,-0.5L0.689,-0L0.522,-0L0.423,-0.496L0.324,-0L0.157,-0L0.033,-0.5L0.119,-0.5L0.242,-0.004L0.341,-0.5Z" style="fill:white;fill-rule:nonzero;"/>
                </g>
                <g transform="matrix(30.26,0,0,23,301.193,166.521)">
                    <path d="M0.159,-0.5L0.159,-0L0.076,-0L0.076,-0.5L0.159,-0.5ZM0.069,-0.593L0.069,-0.69L0.166,-0.69L0.166,-0.593L0.069,-0.593Z" style="fill:white;fill-rule:nonzero;"/>
                </g>
                <g transform="matrix(30.26,0,0,23,308.304,166.521)">
                    <path d="M0.112,-0.434L0.021,-0.434L0.021,-0.5L0.112,-0.5L0.112,-0.614L0.195,-0.614L0.195,-0.5L0.322,-0.5L0.322,-0.434L0.195,-0.434L0.195,-0.121C0.195,-0.102 0.199,-0.088 0.207,-0.079C0.216,-0.07 0.23,-0.066 0.251,-0.066L0.318,-0.066L0.318,-0L0.228,-0C0.186,-0 0.156,-0.01 0.139,-0.029C0.121,-0.048 0.112,-0.076 0.112,-0.112L0.112,-0.434Z" style="fill:white;fill-rule:nonzero;"/>
                </g>
                <g transform="matrix(30.26,0,0,23,318.774,166.521)">
                    <path d="M0.39,-0.31C0.39,-0.351 0.381,-0.384 0.363,-0.406C0.344,-0.43 0.315,-0.441 0.275,-0.441C0.234,-0.441 0.205,-0.429 0.187,-0.406C0.168,-0.383 0.159,-0.353 0.159,-0.318L0.159,-0L0.076,-0L0.076,-0.69L0.156,-0.69L0.156,-0.402L0.158,-0.402C0.171,-0.436 0.19,-0.463 0.216,-0.482C0.241,-0.5 0.272,-0.51 0.309,-0.51C0.336,-0.51 0.359,-0.505 0.38,-0.497C0.401,-0.488 0.418,-0.475 0.432,-0.46C0.445,-0.445 0.456,-0.427 0.463,-0.406C0.469,-0.385 0.473,-0.362 0.473,-0.339L0.473,-0L0.39,-0L0.39,-0.31Z" style="fill:white;fill-rule:nonzero;"/>
                </g>
                <g transform="matrix(30.26,0,0,23,102.385,190.809)">
                    <path d="M0.371,-0.131C0.371,-0.148 0.365,-0.163 0.352,-0.176C0.339,-0.189 0.313,-0.2 0.275,-0.209L0.208,-0.224C0.16,-0.235 0.122,-0.251 0.095,-0.274C0.068,-0.297 0.054,-0.328 0.054,-0.367C0.054,-0.408 0.072,-0.443 0.107,-0.469C0.142,-0.497 0.187,-0.51 0.24,-0.51C0.297,-0.51 0.344,-0.495 0.381,-0.466C0.418,-0.436 0.438,-0.398 0.441,-0.352L0.358,-0.352C0.355,-0.381 0.343,-0.403 0.323,-0.42C0.302,-0.436 0.275,-0.444 0.24,-0.444C0.211,-0.444 0.187,-0.438 0.166,-0.427C0.145,-0.415 0.135,-0.398 0.135,-0.375C0.135,-0.354 0.143,-0.339 0.16,-0.33C0.176,-0.321 0.203,-0.312 0.24,-0.303L0.307,-0.288C0.355,-0.277 0.391,-0.259 0.415,-0.234C0.439,-0.209 0.451,-0.176 0.451,-0.136C0.451,-0.093 0.434,-0.058 0.4,-0.031C0.365,-0.004 0.316,0.01 0.251,0.01C0.218,0.01 0.189,0.005 0.164,-0.006C0.138,-0.017 0.116,-0.031 0.099,-0.048C0.081,-0.065 0.067,-0.084 0.057,-0.107C0.046,-0.129 0.04,-0.152 0.039,-0.175L0.122,-0.175C0.125,-0.141 0.138,-0.113 0.162,-0.09C0.186,-0.067 0.217,-0.056 0.254,-0.056C0.286,-0.056 0.314,-0.063 0.337,-0.076C0.36,-0.089 0.371,-0.108 0.371,-0.131Z" style="fill:white;fill-rule:nonzero;"/>
                </g>
                <g transform="matrix(30.26,0,0,23,117.333,190.809)">
                    <path d="M0.493,-0.158C0.488,-0.136 0.481,-0.115 0.471,-0.095C0.461,-0.074 0.447,-0.056 0.43,-0.041C0.413,-0.026 0.392,-0.013 0.367,-0.004C0.342,0.005 0.312,0.01 0.278,0.01C0.241,0.01 0.208,0.003 0.179,-0.011C0.15,-0.025 0.126,-0.044 0.107,-0.068C0.087,-0.091 0.072,-0.119 0.062,-0.151C0.051,-0.182 0.046,-0.215 0.046,-0.25C0.046,-0.285 0.051,-0.318 0.061,-0.349C0.07,-0.381 0.085,-0.409 0.104,-0.433C0.123,-0.456 0.147,-0.475 0.175,-0.489C0.204,-0.503 0.237,-0.51 0.274,-0.51C0.311,-0.51 0.345,-0.503 0.374,-0.489C0.403,-0.475 0.428,-0.456 0.448,-0.431C0.467,-0.406 0.482,-0.376 0.491,-0.341C0.5,-0.306 0.502,-0.267 0.499,-0.225L0.13,-0.225C0.132,-0.173 0.147,-0.132 0.175,-0.102C0.203,-0.071 0.24,-0.056 0.286,-0.056C0.307,-0.056 0.326,-0.059 0.341,-0.066C0.356,-0.073 0.368,-0.081 0.377,-0.092C0.386,-0.102 0.393,-0.113 0.398,-0.125C0.403,-0.137 0.407,-0.148 0.41,-0.158L0.493,-0.158ZM0.274,-0.444C0.23,-0.444 0.196,-0.43 0.172,-0.401C0.148,-0.372 0.134,-0.336 0.13,-0.291L0.417,-0.291C0.414,-0.336 0.4,-0.372 0.376,-0.401C0.352,-0.43 0.318,-0.444 0.274,-0.444Z" style="fill:white;fill-rule:nonzero;"/>
                </g>
                <g transform="matrix(30.26,0,0,23,133.825,190.809)">
                    <path d="M0.39,-0.31C0.39,-0.351 0.381,-0.384 0.363,-0.406C0.344,-0.43 0.315,-0.441 0.275,-0.441C0.234,-0.441 0.205,-0.429 0.187,-0.406C0.168,-0.383 0.159,-0.353 0.159,-0.318L0.159,-0L0.076,-0L0.076,-0.5L0.156,-0.5L0.156,-0.402L0.158,-0.402C0.171,-0.436 0.19,-0.463 0.216,-0.482C0.241,-0.5 0.272,-0.51 0.309,-0.51C0.336,-0.51 0.359,-0.505 0.38,-0.497C0.401,-0.488 0.418,-0.475 0.432,-0.46C0.445,-0.445 0.456,-0.427 0.463,-0.406C0.469,-0.385 0.473,-0.362 0.473,-0.339L0.473,-0L0.39,-0L0.39,-0.31Z" style="fill:white;fill-rule:nonzero;"/>
                </g>
                <g transform="matrix(30.26,0,0,23,150.287,190.809)">
                    <path d="M0.371,-0.131C0.371,-0.148 0.365,-0.163 0.352,-0.176C0.339,-0.189 0.313,-0.2 0.275,-0.209L0.208,-0.224C0.16,-0.235 0.122,-0.251 0.095,-0.274C0.068,-0.297 0.054,-0.328 0.054,-0.367C0.054,-0.408 0.072,-0.443 0.107,-0.469C0.142,-0.497 0.187,-0.51 0.24,-0.51C0.297,-0.51 0.344,-0.495 0.381,-0.466C0.418,-0.436 0.438,-0.398 0.441,-0.352L0.358,-0.352C0.355,-0.381 0.343,-0.403 0.323,-0.42C0.302,-0.436 0.275,-0.444 0.24,-0.444C0.211,-0.444 0.187,-0.438 0.166,-0.427C0.145,-0.415 0.135,-0.398 0.135,-0.375C0.135,-0.354 0.143,-0.339 0.16,-0.33C0.176,-0.321 0.203,-0.312 0.24,-0.303L0.307,-0.288C0.355,-0.277 0.391,-0.259 0.415,-0.234C0.439,-0.209 0.451,-0.176 0.451,-0.136C0.451,-0.093 0.434,-0.058 0.4,-0.031C0.365,-0.004 0.316,0.01 0.251,0.01C0.218,0.01 0.189,0.005 0.164,-0.006C0.138,-0.017 0.116,-0.031 0.099,-0.048C0.081,-0.065 0.067,-0.084 0.057,-0.107C0.046,-0.129 0.04,-0.152 0.039,-0.175L0.122,-0.175C0.125,-0.141 0.138,-0.113 0.162,-0.09C0.186,-0.067 0.217,-0.056 0.254,-0.056C0.286,-0.056 0.314,-0.063 0.337,-0.076C0.36,-0.089 0.371,-0.108 0.371,-0.131Z" style="fill:white;fill-rule:nonzero;"/>
                </g>
                <g transform="matrix(30.26,0,0,23,165.235,190.809)">
                    <path d="M0.285,0.01C0.248,0.01 0.214,0.003 0.185,-0.012C0.155,-0.027 0.13,-0.046 0.109,-0.07C0.088,-0.094 0.073,-0.122 0.062,-0.153C0.051,-0.184 0.045,-0.217 0.045,-0.25C0.045,-0.283 0.051,-0.316 0.062,-0.347C0.073,-0.378 0.088,-0.406 0.109,-0.43C0.13,-0.454 0.155,-0.473 0.185,-0.488C0.214,-0.503 0.248,-0.51 0.285,-0.51C0.322,-0.51 0.356,-0.503 0.386,-0.488C0.415,-0.473 0.44,-0.454 0.461,-0.43C0.482,-0.406 0.498,-0.378 0.508,-0.347C0.52,-0.316 0.525,-0.283 0.525,-0.25C0.525,-0.217 0.52,-0.184 0.508,-0.153C0.498,-0.122 0.482,-0.094 0.461,-0.07C0.44,-0.046 0.415,-0.027 0.386,-0.012C0.356,0.003 0.322,0.01 0.285,0.01ZM0.285,-0.056C0.333,-0.056 0.37,-0.075 0.396,-0.112C0.422,-0.149 0.435,-0.195 0.435,-0.25C0.435,-0.305 0.422,-0.352 0.396,-0.389C0.37,-0.426 0.333,-0.444 0.285,-0.444C0.237,-0.444 0.2,-0.426 0.174,-0.389C0.148,-0.352 0.135,-0.305 0.135,-0.25C0.135,-0.195 0.148,-0.149 0.174,-0.112C0.2,-0.075 0.237,-0.056 0.285,-0.056Z" style="fill:white;fill-rule:nonzero;"/>
                </g>
                <g transform="matrix(30.26,0,0,23,182.483,190.809)">
                    <path d="M0.159,-0.3L0.159,-0L0.076,-0L0.076,-0.5L0.156,-0.5L0.156,-0.402L0.158,-0.402C0.171,-0.436 0.19,-0.463 0.216,-0.482C0.241,-0.5 0.272,-0.51 0.309,-0.51L0.309,-0.42L0.291,-0.42C0.251,-0.42 0.219,-0.411 0.195,-0.394C0.171,-0.376 0.159,-0.345 0.159,-0.3Z" style="fill:white;fill-rule:nonzero;"/>
                </g>
                <g transform="matrix(30.26,0,0,23,192.318,190.809)">
                    <path d="M0.371,-0.131C0.371,-0.148 0.365,-0.163 0.352,-0.176C0.339,-0.189 0.313,-0.2 0.275,-0.209L0.208,-0.224C0.16,-0.235 0.122,-0.251 0.095,-0.274C0.068,-0.297 0.054,-0.328 0.054,-0.367C0.054,-0.408 0.072,-0.443 0.107,-0.469C0.142,-0.497 0.187,-0.51 0.24,-0.51C0.297,-0.51 0.344,-0.495 0.381,-0.466C0.418,-0.436 0.438,-0.398 0.441,-0.352L0.358,-0.352C0.355,-0.381 0.343,-0.403 0.323,-0.42C0.302,-0.436 0.275,-0.444 0.24,-0.444C0.211,-0.444 0.187,-0.438 0.166,-0.427C0.145,-0.415 0.135,-0.398 0.135,-0.375C0.135,-0.354 0.143,-0.339 0.16,-0.33C0.176,-0.321 0.203,-0.312 0.24,-0.303L0.307,-0.288C0.355,-0.277 0.391,-0.259 0.415,-0.234C0.439,-0.209 0.451,-0.176 0.451,-0.136C0.451,-0.093 0.434,-0.058 0.4,-0.031C0.365,-0.004 0.316,0.01 0.251,0.01C0.218,0.01 0.189,0.005 0.164,-0.006C0.138,-0.017 0.116,-0.031 0.099,-0.048C0.081,-0.065 0.067,-0.084 0.057,-0.107C0.046,-0.129 0.04,-0.152 0.039,-0.175L0.122,-0.175C0.125,-0.141 0.138,-0.113 0.162,-0.09C0.186,-0.067 0.217,-0.056 0.254,-0.056C0.286,-0.056 0.314,-0.063 0.337,-0.076C0.36,-0.089 0.371,-0.108 0.371,-0.131Z" style="fill:white;fill-rule:nonzero;"/>
                </g>
                <g transform="matrix(30.26,0,0,23,214.71,190.809)">
                    <path d="M0.113,-0.5L0.113,-0.578C0.113,-0.614 0.122,-0.642 0.14,-0.661C0.157,-0.68 0.187,-0.69 0.229,-0.69L0.319,-0.69L0.319,-0.624L0.252,-0.624C0.231,-0.624 0.217,-0.62 0.209,-0.611C0.2,-0.602 0.196,-0.588 0.196,-0.569L0.196,-0.5L0.323,-0.5L0.323,-0.434L0.196,-0.434L0.196,-0L0.113,-0L0.113,-0.434L0.022,-0.434L0.022,-0.5L0.113,-0.5Z" style="fill:white;fill-rule:nonzero;"/>
                </g>
                <g transform="matrix(30.26,0,0,23,224.484,190.809)">
                    <path d="M0.285,0.01C0.248,0.01 0.214,0.003 0.185,-0.012C0.155,-0.027 0.13,-0.046 0.109,-0.07C0.088,-0.094 0.073,-0.122 0.062,-0.153C0.051,-0.184 0.045,-0.217 0.045,-0.25C0.045,-0.283 0.051,-0.316 0.062,-0.347C0.073,-0.378 0.088,-0.406 0.109,-0.43C0.13,-0.454 0.155,-0.473 0.185,-0.488C0.214,-0.503 0.248,-0.51 0.285,-0.51C0.322,-0.51 0.356,-0.503 0.386,-0.488C0.415,-0.473 0.44,-0.454 0.461,-0.43C0.482,-0.406 0.498,-0.378 0.508,-0.347C0.52,-0.316 0.525,-0.283 0.525,-0.25C0.525,-0.217 0.52,-0.184 0.508,-0.153C0.498,-0.122 0.482,-0.094 0.461,-0.07C0.44,-0.046 0.415,-0.027 0.386,-0.012C0.356,0.003 0.322,0.01 0.285,0.01ZM0.285,-0.056C0.333,-0.056 0.37,-0.075 0.396,-0.112C0.422,-0.149 0.435,-0.195 0.435,-0.25C0.435,-0.305 0.422,-0.352 0.396,-0.389C0.37,-0.426 0.333,-0.444 0.285,-0.444C0.237,-0.444 0.2,-0.426 0.174,-0.389C0.148,-0.352 0.135,-0.305 0.135,-0.25C0.135,-0.195 0.148,-0.149 0.174,-0.112C0.2,-0.075 0.237,-0.056 0.285,-0.056Z" style="fill:white;fill-rule:nonzero;"/>
                </g>
                <g transform="matrix(30.26,0,0,23,241.732,190.809)">
                    <path d="M0.159,-0.3L0.159,-0L0.076,-0L0.076,-0.5L0.156,-0.5L0.156,-0.402L0.158,-0.402C0.171,-0.436 0.19,-0.463 0.216,-0.482C0.241,-0.5 0.272,-0.51 0.309,-0.51L0.309,-0.42L0.291,-0.42C0.251,-0.42 0.219,-0.411 0.195,-0.394C0.171,-0.376 0.159,-0.345 0.159,-0.3Z" style="fill:white;fill-rule:nonzero;"/>
                </g>
                <g transform="matrix(30.26,0,0,23,258.466,190.809)">
                    <path d="M0.159,-0.318L0.159,-0L0.076,-0L0.076,-0.5L0.156,-0.5L0.156,-0.402L0.158,-0.402C0.171,-0.436 0.189,-0.463 0.213,-0.482C0.236,-0.5 0.266,-0.51 0.301,-0.51C0.343,-0.51 0.377,-0.5 0.404,-0.48C0.43,-0.459 0.448,-0.433 0.459,-0.402L0.46,-0.402C0.473,-0.436 0.492,-0.463 0.518,-0.482C0.544,-0.5 0.575,-0.51 0.61,-0.51C0.637,-0.51 0.662,-0.505 0.683,-0.497C0.704,-0.488 0.721,-0.475 0.735,-0.46C0.749,-0.445 0.759,-0.427 0.767,-0.406C0.774,-0.385 0.777,-0.362 0.777,-0.339L0.777,-0L0.694,-0L0.694,-0.31C0.694,-0.351 0.685,-0.384 0.667,-0.406C0.649,-0.43 0.62,-0.441 0.581,-0.441C0.539,-0.441 0.51,-0.429 0.493,-0.406C0.476,-0.383 0.468,-0.353 0.468,-0.318L0.468,-0L0.385,-0L0.385,-0.31C0.385,-0.351 0.376,-0.384 0.358,-0.406C0.34,-0.43 0.311,-0.441 0.272,-0.441C0.23,-0.441 0.201,-0.429 0.184,-0.406C0.167,-0.383 0.159,-0.353 0.159,-0.318Z" style="fill:white;fill-rule:nonzero;"/>
                </g>
                <g transform="matrix(30.26,0,0,23,284.127,190.809)">
                    <path d="M0.285,0.01C0.248,0.01 0.214,0.003 0.185,-0.012C0.155,-0.027 0.13,-0.046 0.109,-0.07C0.088,-0.094 0.073,-0.122 0.062,-0.153C0.051,-0.184 0.045,-0.217 0.045,-0.25C0.045,-0.283 0.051,-0.316 0.062,-0.347C0.073,-0.378 0.088,-0.406 0.109,-0.43C0.13,-0.454 0.155,-0.473 0.185,-0.488C0.214,-0.503 0.248,-0.51 0.285,-0.51C0.322,-0.51 0.356,-0.503 0.386,-0.488C0.415,-0.473 0.44,-0.454 0.461,-0.43C0.482,-0.406 0.498,-0.378 0.508,-0.347C0.52,-0.316 0.525,-0.283 0.525,-0.25C0.525,-0.217 0.52,-0.184 0.508,-0.153C0.498,-0.122 0.482,-0.094 0.461,-0.07C0.44,-0.046 0.415,-0.027 0.386,-0.012C0.356,0.003 0.322,0.01 0.285,0.01ZM0.285,-0.056C0.333,-0.056 0.37,-0.075 0.396,-0.112C0.422,-0.149 0.435,-0.195 0.435,-0.25C0.435,-0.305 0.422,-0.352 0.396,-0.389C0.37,-0.426 0.333,-0.444 0.285,-0.444C0.237,-0.444 0.2,-0.426 0.174,-0.389C0.148,-0.352 0.135,-0.305 0.135,-0.25C0.135,-0.195 0.148,-0.149 0.174,-0.112C0.2,-0.075 0.237,-0.056 0.285,-0.056Z" style="fill:white;fill-rule:nonzero;"/>
                </g>
                <g transform="matrix(30.26,0,0,23,301.072,190.809)">
                    <path d="M0.023,-0.5L0.109,-0.5L0.255,-0.004L0.401,-0.5L0.487,-0.5L0.34,-0L0.17,-0L0.023,-0.5Z" style="fill:white;fill-rule:nonzero;"/>
                </g>
                <g transform="matrix(30.26,0,0,23,316.202,190.809)">
                    <path d="M0.493,-0.158C0.488,-0.136 0.481,-0.115 0.471,-0.095C0.461,-0.074 0.447,-0.056 0.43,-0.041C0.413,-0.026 0.392,-0.013 0.367,-0.004C0.342,0.005 0.312,0.01 0.278,0.01C0.241,0.01 0.208,0.003 0.179,-0.011C0.15,-0.025 0.126,-0.044 0.107,-0.068C0.087,-0.091 0.072,-0.119 0.062,-0.151C0.051,-0.182 0.046,-0.215 0.046,-0.25C0.046,-0.285 0.051,-0.318 0.061,-0.349C0.07,-0.381 0.085,-0.409 0.104,-0.433C0.123,-0.456 0.147,-0.475 0.175,-0.489C0.204,-0.503 0.237,-0.51 0.274,-0.51C0.311,-0.51 0.345,-0.503 0.374,-0.489C0.403,-0.475 0.428,-0.456 0.448,-0.431C0.467,-0.406 0.482,-0.376 0.491,-0.341C0.5,-0.306 0.502,-0.267 0.499,-0.225L0.13,-0.225C0.132,-0.173 0.147,-0.132 0.175,-0.102C0.203,-0.071 0.24,-0.056 0.286,-0.056C0.307,-0.056 0.326,-0.059 0.341,-0.066C0.356,-0.073 0.368,-0.081 0.377,-0.092C0.386,-0.102 0.393,-0.113 0.398,-0.125C0.403,-0.137 0.407,-0.148 0.41,-0.158L0.493,-0.158ZM0.274,-0.444C0.23,-0.444 0.196,-0.43 0.172,-0.401C0.148,-0.372 0.134,-0.336 0.13,-0.291L0.417,-0.291C0.414,-0.336 0.4,-0.372 0.376,-0.401C0.352,-0.43 0.318,-0.444 0.274,-0.444Z" style="fill:white;fill-rule:nonzero;"/>
                </g>
                <g transform="matrix(30.26,0,0,23,332.694,190.809)">
                    <path d="M0.159,-0.318L0.159,-0L0.076,-0L0.076,-0.5L0.156,-0.5L0.156,-0.402L0.158,-0.402C0.171,-0.436 0.189,-0.463 0.213,-0.482C0.236,-0.5 0.266,-0.51 0.301,-0.51C0.343,-0.51 0.377,-0.5 0.404,-0.48C0.43,-0.459 0.448,-0.433 0.459,-0.402L0.46,-0.402C0.473,-0.436 0.492,-0.463 0.518,-0.482C0.544,-0.5 0.575,-0.51 0.61,-0.51C0.637,-0.51 0.662,-0.505 0.683,-0.497C0.704,-0.488 0.721,-0.475 0.735,-0.46C0.749,-0.445 0.759,-0.427 0.767,-0.406C0.774,-0.385 0.777,-0.362 0.777,-0.339L0.777,-0L0.694,-0L0.694,-0.31C0.694,-0.351 0.685,-0.384 0.667,-0.406C0.649,-0.43 0.62,-0.441 0.581,-0.441C0.539,-0.441 0.51,-0.429 0.493,-0.406C0.476,-0.383 0.468,-0.353 0.468,-0.318L0.468,-0L0.385,-0L0.385,-0.31C0.385,-0.351 0.376,-0.384 0.358,-0.406C0.34,-0.43 0.311,-0.441 0.272,-0.441C0.23,-0.441 0.201,-0.429 0.184,-0.406C0.167,-0.383 0.159,-0.353 0.159,-0.318Z" style="fill:white;fill-rule:nonzero;"/>
                </g>
                <g transform="matrix(30.26,0,0,23,358.354,190.809)">
                    <path d="M0.493,-0.158C0.488,-0.136 0.481,-0.115 0.471,-0.095C0.461,-0.074 0.447,-0.056 0.43,-0.041C0.413,-0.026 0.392,-0.013 0.367,-0.004C0.342,0.005 0.312,0.01 0.278,0.01C0.241,0.01 0.208,0.003 0.179,-0.011C0.15,-0.025 0.126,-0.044 0.107,-0.068C0.087,-0.091 0.072,-0.119 0.062,-0.151C0.051,-0.182 0.046,-0.215 0.046,-0.25C0.046,-0.285 0.051,-0.318 0.061,-0.349C0.07,-0.381 0.085,-0.409 0.104,-0.433C0.123,-0.456 0.147,-0.475 0.175,-0.489C0.204,-0.503 0.237,-0.51 0.274,-0.51C0.311,-0.51 0.345,-0.503 0.374,-0.489C0.403,-0.475 0.428,-0.456 0.448,-0.431C0.467,-0.406 0.482,-0.376 0.491,-0.341C0.5,-0.306 0.502,-0.267 0.499,-0.225L0.13,-0.225C0.132,-0.173 0.147,-0.132 0.175,-0.102C0.203,-0.071 0.24,-0.056 0.286,-0.056C0.307,-0.056 0.326,-0.059 0.341,-0.066C0.356,-0.073 0.368,-0.081 0.377,-0.092C0.386,-0.102 0.393,-0.113 0.398,-0.125C0.403,-0.137 0.407,-0.148 0.41,-0.158L0.493,-0.158ZM0.274,-0.444C0.23,-0.444 0.196,-0.43 0.172,-0.401C0.148,-0.372 0.134,-0.336 0.13,-0.291L0.417,-0.291C0.414,-0.336 0.4,-0.372 0.376,-0.401C0.352,-0.43 0.318,-0.444 0.274,-0.444Z" style="fill:white;fill-rule:nonzero;"/>
                </g>
                <g transform="matrix(30.26,0,0,23,374.846,190.809)">
                    <path d="M0.39,-0.31C0.39,-0.351 0.381,-0.384 0.363,-0.406C0.344,-0.43 0.315,-0.441 0.275,-0.441C0.234,-0.441 0.205,-0.429 0.187,-0.406C0.168,-0.383 0.159,-0.353 0.159,-0.318L0.159,-0L0.076,-0L0.076,-0.5L0.156,-0.5L0.156,-0.402L0.158,-0.402C0.171,-0.436 0.19,-0.463 0.216,-0.482C0.241,-0.5 0.272,-0.51 0.309,-0.51C0.336,-0.51 0.359,-0.505 0.38,-0.497C0.401,-0.488 0.418,-0.475 0.432,-0.46C0.445,-0.445 0.456,-0.427 0.463,-0.406C0.469,-0.385 0.473,-0.362 0.473,-0.339L0.473,-0L0.39,-0L0.39,-0.31Z" style="fill:white;fill-rule:nonzero;"/>
                </g>
                <g transform="matrix(30.26,0,0,23,391.156,190.809)">
                    <path d="M0.112,-0.434L0.021,-0.434L0.021,-0.5L0.112,-0.5L0.112,-0.614L0.195,-0.614L0.195,-0.5L0.322,-0.5L0.322,-0.434L0.195,-0.434L0.195,-0.121C0.195,-0.102 0.199,-0.088 0.207,-0.079C0.216,-0.07 0.23,-0.066 0.251,-0.066L0.318,-0.066L0.318,-0L0.228,-0C0.186,-0 0.156,-0.01 0.139,-0.029C0.121,-0.048 0.112,-0.076 0.112,-0.112L0.112,-0.434Z" style="fill:white;fill-rule:nonzero;"/>
                </g>
                <g transform="matrix(30.26,0,0,23,401.626,190.809)">
                    <path d="M0.034,0.115L0.107,-0L0.069,-0L0.069,-0.097L0.166,-0.097L0.166,-0L0.093,0.115L0.034,0.115Z" style="fill:white;fill-rule:nonzero;"/>
                </g>
                <g transform="matrix(30.26,0,0,23,102.385,215.097)">
                    <path d="M0.543,-0.25C0.543,-0.216 0.539,-0.183 0.53,-0.152C0.521,-0.12 0.507,-0.092 0.489,-0.069C0.471,-0.045 0.449,-0.026 0.422,-0.012C0.395,0.003 0.363,0.01 0.328,0.01C0.289,0.01 0.255,-0 0.226,-0.021C0.197,-0.042 0.175,-0.07 0.161,-0.106L0.159,-0.106L0.159,0.17L0.076,0.17L0.076,-0.5L0.159,-0.5L0.159,-0.394L0.161,-0.394C0.175,-0.43 0.197,-0.458 0.226,-0.479C0.255,-0.5 0.289,-0.51 0.328,-0.51C0.363,-0.51 0.395,-0.503 0.422,-0.489C0.449,-0.474 0.471,-0.455 0.489,-0.432C0.507,-0.408 0.521,-0.38 0.53,-0.348C0.539,-0.317 0.543,-0.284 0.543,-0.25ZM0.453,-0.25C0.453,-0.305 0.44,-0.352 0.414,-0.389C0.388,-0.426 0.351,-0.444 0.303,-0.444C0.255,-0.444 0.218,-0.426 0.193,-0.389C0.168,-0.352 0.155,-0.305 0.155,-0.25C0.155,-0.195 0.168,-0.149 0.193,-0.112C0.218,-0.075 0.255,-0.056 0.303,-0.056C0.351,-0.056 0.388,-0.075 0.414,-0.112C0.44,-0.149 0.453,-0.195 0.453,-0.25Z" style="fill:white;fill-rule:nonzero;"/>
                </g>
                <g transform="matrix(30.26,0,0,23,120.238,215.097)">
                    <path d="M0.285,0.01C0.248,0.01 0.214,0.003 0.185,-0.012C0.155,-0.027 0.13,-0.046 0.109,-0.07C0.088,-0.094 0.073,-0.122 0.062,-0.153C0.051,-0.184 0.045,-0.217 0.045,-0.25C0.045,-0.283 0.051,-0.316 0.062,-0.347C0.073,-0.378 0.088,-0.406 0.109,-0.43C0.13,-0.454 0.155,-0.473 0.185,-0.488C0.214,-0.503 0.248,-0.51 0.285,-0.51C0.322,-0.51 0.356,-0.503 0.386,-0.488C0.415,-0.473 0.44,-0.454 0.461,-0.43C0.482,-0.406 0.498,-0.378 0.508,-0.347C0.52,-0.316 0.525,-0.283 0.525,-0.25C0.525,-0.217 0.52,-0.184 0.508,-0.153C0.498,-0.122 0.482,-0.094 0.461,-0.07C0.44,-0.046 0.415,-0.027 0.386,-0.012C0.356,0.003 0.322,0.01 0.285,0.01ZM0.285,-0.056C0.333,-0.056 0.37,-0.075 0.396,-0.112C0.422,-0.149 0.435,-0.195 0.435,-0.25C0.435,-0.305 0.422,-0.352 0.396,-0.389C0.37,-0.426 0.333,-0.444 0.285,-0.444C0.237,-0.444 0.2,-0.426 0.174,-0.389C0.148,-0.352 0.135,-0.305 0.135,-0.25C0.135,-0.195 0.148,-0.149 0.174,-0.112C0.2,-0.075 0.237,-0.056 0.285,-0.056Z" style="fill:white;fill-rule:nonzero;"/>
                </g>
                <g transform="matrix(30.26,0,0,23,137.214,215.097)">
                    <path d="M0.341,-0.5L0.505,-0.5L0.604,-0.004L0.727,-0.5L0.813,-0.5L0.689,-0L0.522,-0L0.423,-0.496L0.324,-0L0.157,-0L0.033,-0.5L0.119,-0.5L0.242,-0.004L0.341,-0.5Z" style="fill:white;fill-rule:nonzero;"/>
                </g>
                <g transform="matrix(30.26,0,0,23,162.542,215.097)">
                    <path d="M0.493,-0.158C0.488,-0.136 0.481,-0.115 0.471,-0.095C0.461,-0.074 0.447,-0.056 0.43,-0.041C0.413,-0.026 0.392,-0.013 0.367,-0.004C0.342,0.005 0.312,0.01 0.278,0.01C0.241,0.01 0.208,0.003 0.179,-0.011C0.15,-0.025 0.126,-0.044 0.107,-0.068C0.087,-0.091 0.072,-0.119 0.062,-0.151C0.051,-0.182 0.046,-0.215 0.046,-0.25C0.046,-0.285 0.051,-0.318 0.061,-0.349C0.07,-0.381 0.085,-0.409 0.104,-0.433C0.123,-0.456 0.147,-0.475 0.175,-0.489C0.204,-0.503 0.237,-0.51 0.274,-0.51C0.311,-0.51 0.345,-0.503 0.374,-0.489C0.403,-0.475 0.428,-0.456 0.448,-0.431C0.467,-0.406 0.482,-0.376 0.491,-0.341C0.5,-0.306 0.502,-0.267 0.499,-0.225L0.13,-0.225C0.132,-0.173 0.147,-0.132 0.175,-0.102C0.203,-0.071 0.24,-0.056 0.286,-0.056C0.307,-0.056 0.326,-0.059 0.341,-0.066C0.356,-0.073 0.368,-0.081 0.377,-0.092C0.386,-0.102 0.393,-0.113 0.398,-0.125C0.403,-0.137 0.407,-0.148 0.41,-0.158L0.493,-0.158ZM0.274,-0.444C0.23,-0.444 0.196,-0.43 0.172,-0.401C0.148,-0.372 0.134,-0.336 0.13,-0.291L0.417,-0.291C0.414,-0.336 0.4,-0.372 0.376,-0.401C0.352,-0.43 0.318,-0.444 0.274,-0.444Z" style="fill:white;fill-rule:nonzero;"/>
                </g>
                <g transform="matrix(30.26,0,0,23,179.034,215.097)">
                    <path d="M0.159,-0.3L0.159,-0L0.076,-0L0.076,-0.5L0.156,-0.5L0.156,-0.402L0.158,-0.402C0.171,-0.436 0.19,-0.463 0.216,-0.482C0.241,-0.5 0.272,-0.51 0.309,-0.51L0.309,-0.42L0.291,-0.42C0.251,-0.42 0.219,-0.411 0.195,-0.394C0.171,-0.376 0.159,-0.345 0.159,-0.3Z" style="fill:white;fill-rule:nonzero;"/>
                </g>
                <g transform="matrix(30.26,0,0,23,195.767,215.097)">
                    <path d="M0.543,-0.25C0.543,-0.216 0.539,-0.183 0.53,-0.152C0.521,-0.12 0.507,-0.092 0.489,-0.069C0.471,-0.045 0.449,-0.026 0.422,-0.012C0.395,0.003 0.363,0.01 0.328,0.01C0.289,0.01 0.255,-0 0.226,-0.021C0.197,-0.042 0.175,-0.07 0.161,-0.106L0.159,-0.106L0.159,0.17L0.076,0.17L0.076,-0.5L0.159,-0.5L0.159,-0.394L0.161,-0.394C0.175,-0.43 0.197,-0.458 0.226,-0.479C0.255,-0.5 0.289,-0.51 0.328,-0.51C0.363,-0.51 0.395,-0.503 0.422,-0.489C0.449,-0.474 0.471,-0.455 0.489,-0.432C0.507,-0.408 0.521,-0.38 0.53,-0.348C0.539,-0.317 0.543,-0.284 0.543,-0.25ZM0.453,-0.25C0.453,-0.305 0.44,-0.352 0.414,-0.389C0.388,-0.426 0.351,-0.444 0.303,-0.444C0.255,-0.444 0.218,-0.426 0.193,-0.389C0.168,-0.352 0.155,-0.305 0.155,-0.25C0.155,-0.195 0.168,-0.149 0.193,-0.112C0.218,-0.075 0.255,-0.056 0.303,-0.056C0.351,-0.056 0.388,-0.075 0.414,-0.112C0.44,-0.149 0.453,-0.195 0.453,-0.25Z" style="fill:white;fill-rule:nonzero;"/>
                </g>
                <g transform="matrix(30.26,0,0,23,213.621,215.097)">
                    <path d="M0.159,-0.3L0.159,-0L0.076,-0L0.076,-0.5L0.156,-0.5L0.156,-0.402L0.158,-0.402C0.171,-0.436 0.19,-0.463 0.216,-0.482C0.241,-0.5 0.272,-0.51 0.309,-0.51L0.309,-0.42L0.291,-0.42C0.251,-0.42 0.219,-0.411 0.195,-0.394C0.171,-0.376 0.159,-0.345 0.159,-0.3Z" style="fill:white;fill-rule:nonzero;"/>
                </g>
                <g transform="matrix(30.26,0,0,23,223.122,215.097)">
                    <path d="M0.285,0.01C0.248,0.01 0.214,0.003 0.185,-0.012C0.155,-0.027 0.13,-0.046 0.109,-0.07C0.088,-0.094 0.073,-0.122 0.062,-0.153C0.051,-0.184 0.045,-0.217 0.045,-0.25C0.045,-0.283 0.051,-0.316 0.062,-0.347C0.073,-0.378 0.088,-0.406 0.109,-0.43C0.13,-0.454 0.155,-0.473 0.185,-0.488C0.214,-0.503 0.248,-0.51 0.285,-0.51C0.322,-0.51 0.356,-0.503 0.386,-0.488C0.415,-0.473 0.44,-0.454 0.461,-0.43C0.482,-0.406 0.498,-0.378 0.508,-0.347C0.52,-0.316 0.525,-0.283 0.525,-0.25C0.525,-0.217 0.52,-0.184 0.508,-0.153C0.498,-0.122 0.482,-0.094 0.461,-0.07C0.44,-0.046 0.415,-0.027 0.386,-0.012C0.356,0.003 0.322,0.01 0.285,0.01ZM0.285,-0.056C0.333,-0.056 0.37,-0.075 0.396,-0.112C0.422,-0.149 0.435,-0.195 0.435,-0.25C0.435,-0.305 0.422,-0.352 0.396,-0.389C0.37,-0.426 0.333,-0.444 0.285,-0.444C0.237,-0.444 0.2,-0.426 0.174,-0.389C0.148,-0.352 0.135,-0.305 0.135,-0.25C0.135,-0.195 0.148,-0.149 0.174,-0.112C0.2,-0.075 0.237,-0.056 0.285,-0.056Z" style="fill:white;fill-rule:nonzero;"/>
                </g>
                <g transform="matrix(30.26,0,0,23,240.371,215.097)">
                    <path d="M0.047,-0.25C0.047,-0.284 0.051,-0.317 0.061,-0.348C0.07,-0.38 0.083,-0.408 0.101,-0.432C0.119,-0.455 0.141,-0.474 0.169,-0.489C0.196,-0.503 0.227,-0.51 0.262,-0.51C0.301,-0.51 0.336,-0.5 0.365,-0.479C0.394,-0.458 0.415,-0.43 0.429,-0.394L0.431,-0.394L0.431,-0.69L0.514,-0.69L0.514,-0L0.431,-0L0.431,-0.106L0.429,-0.106C0.415,-0.07 0.394,-0.042 0.365,-0.021C0.336,-0 0.301,0.01 0.262,0.01C0.227,0.01 0.196,0.003 0.169,-0.012C0.141,-0.026 0.119,-0.045 0.101,-0.069C0.083,-0.092 0.07,-0.12 0.061,-0.152C0.051,-0.183 0.047,-0.216 0.047,-0.25ZM0.137,-0.25C0.137,-0.195 0.15,-0.149 0.176,-0.112C0.202,-0.075 0.239,-0.056 0.287,-0.056C0.335,-0.056 0.372,-0.075 0.397,-0.112C0.422,-0.149 0.435,-0.195 0.435,-0.25C0.435,-0.305 0.422,-0.352 0.397,-0.389C0.372,-0.426 0.335,-0.444 0.287,-0.444C0.239,-0.444 0.202,-0.426 0.176,-0.389C0.15,-0.352 0.137,-0.305 0.137,-0.25Z" style="fill:white;fill-rule:nonzero;"/>
                </g>
                <g transform="matrix(30.26,0,0,23,258.224,215.097)">
                    <path d="M0.155,-0.19C0.155,-0.149 0.164,-0.117 0.182,-0.094C0.2,-0.07 0.229,-0.059 0.268,-0.059C0.31,-0.059 0.339,-0.071 0.356,-0.094C0.373,-0.117 0.381,-0.147 0.381,-0.182L0.381,-0.5L0.464,-0.5L0.464,-0L0.384,-0L0.384,-0.098L0.382,-0.098C0.369,-0.064 0.351,-0.038 0.328,-0.019C0.304,0 0.274,0.01 0.239,0.01C0.212,0.01 0.188,0.005 0.167,-0.004C0.146,-0.013 0.128,-0.025 0.114,-0.04C0.1,-0.055 0.09,-0.074 0.083,-0.095C0.076,-0.116 0.072,-0.138 0.072,-0.161L0.072,-0.5L0.155,-0.5L0.155,-0.19Z" style="fill:white;fill-rule:nonzero;"/>
                </g>
                <g transform="matrix(30.26,0,0,23,274.564,215.097)">
                    <path d="M0.046,-0.25C0.046,-0.283 0.051,-0.316 0.063,-0.347C0.074,-0.378 0.089,-0.406 0.109,-0.43C0.129,-0.454 0.153,-0.473 0.182,-0.488C0.21,-0.503 0.242,-0.51 0.277,-0.51C0.337,-0.51 0.386,-0.495 0.424,-0.465C0.461,-0.434 0.485,-0.39 0.496,-0.333L0.413,-0.333C0.406,-0.373 0.39,-0.402 0.367,-0.419C0.343,-0.436 0.315,-0.444 0.282,-0.444C0.259,-0.444 0.238,-0.439 0.22,-0.429C0.201,-0.418 0.186,-0.404 0.173,-0.387C0.161,-0.369 0.152,-0.348 0.146,-0.325C0.139,-0.302 0.136,-0.277 0.136,-0.25C0.136,-0.223 0.139,-0.197 0.146,-0.173C0.153,-0.15 0.162,-0.129 0.175,-0.112C0.188,-0.095 0.203,-0.081 0.223,-0.071C0.242,-0.061 0.263,-0.056 0.288,-0.056C0.32,-0.056 0.348,-0.065 0.372,-0.083C0.395,-0.1 0.411,-0.129 0.418,-0.169L0.501,-0.169C0.49,-0.112 0.466,-0.068 0.428,-0.037C0.39,-0.006 0.341,0.01 0.281,0.01C0.245,0.01 0.213,0.003 0.184,-0.011C0.155,-0.025 0.13,-0.044 0.11,-0.068C0.089,-0.091 0.074,-0.119 0.063,-0.151C0.051,-0.182 0.046,-0.215 0.046,-0.25Z" style="fill:white;fill-rule:nonzero;"/>
                </g>
                <g transform="matrix(30.26,0,0,23,290.663,215.097)">
                    <path d="M0.112,-0.434L0.021,-0.434L0.021,-0.5L0.112,-0.5L0.112,-0.614L0.195,-0.614L0.195,-0.5L0.322,-0.5L0.322,-0.434L0.195,-0.434L0.195,-0.121C0.195,-0.102 0.199,-0.088 0.207,-0.079C0.216,-0.07 0.23,-0.066 0.251,-0.066L0.318,-0.066L0.318,-0L0.228,-0C0.186,-0 0.156,-0.01 0.139,-0.029C0.121,-0.048 0.112,-0.076 0.112,-0.112L0.112,-0.434Z" style="fill:white;fill-rule:nonzero;"/>
                </g>
                <g transform="matrix(30.26,0,0,23,301.133,215.097)">
                    <path d="M0.159,-0.5L0.159,-0L0.076,-0L0.076,-0.5L0.159,-0.5ZM0.069,-0.593L0.069,-0.69L0.166,-0.69L0.166,-0.593L0.069,-0.593Z" style="fill:white;fill-rule:nonzero;"/>
                </g>
                <g transform="matrix(30.26,0,0,23,308.244,215.097)">
                    <path d="M0.285,0.01C0.248,0.01 0.214,0.003 0.185,-0.012C0.155,-0.027 0.13,-0.046 0.109,-0.07C0.088,-0.094 0.073,-0.122 0.062,-0.153C0.051,-0.184 0.045,-0.217 0.045,-0.25C0.045,-0.283 0.051,-0.316 0.062,-0.347C0.073,-0.378 0.088,-0.406 0.109,-0.43C0.13,-0.454 0.155,-0.473 0.185,-0.488C0.214,-0.503 0.248,-0.51 0.285,-0.51C0.322,-0.51 0.356,-0.503 0.386,-0.488C0.415,-0.473 0.44,-0.454 0.461,-0.43C0.482,-0.406 0.498,-0.378 0.508,-0.347C0.52,-0.316 0.525,-0.283 0.525,-0.25C0.525,-0.217 0.52,-0.184 0.508,-0.153C0.498,-0.122 0.482,-0.094 0.461,-0.07C0.44,-0.046 0.415,-0.027 0.386,-0.012C0.356,0.003 0.322,0.01 0.285,0.01ZM0.285,-0.056C0.333,-0.056 0.37,-0.075 0.396,-0.112C0.422,-0.149 0.435,-0.195 0.435,-0.25C0.435,-0.305 0.422,-0.352 0.396,-0.389C0.37,-0.426 0.333,-0.444 0.285,-0.444C0.237,-0.444 0.2,-0.426 0.174,-0.389C0.148,-0.352 0.135,-0.305 0.135,-0.25C0.135,-0.195 0.148,-0.149 0.174,-0.112C0.2,-0.075 0.237,-0.056 0.285,-0.056Z" style="fill:white;fill-rule:nonzero;"/>
                </g>
                <g transform="matrix(30.26,0,0,23,325.492,215.097)">
                    <path d="M0.39,-0.31C0.39,-0.351 0.381,-0.384 0.363,-0.406C0.344,-0.43 0.315,-0.441 0.275,-0.441C0.234,-0.441 0.205,-0.429 0.187,-0.406C0.168,-0.383 0.159,-0.353 0.159,-0.318L0.159,-0L0.076,-0L0.076,-0.5L0.156,-0.5L0.156,-0.402L0.158,-0.402C0.171,-0.436 0.19,-0.463 0.216,-0.482C0.241,-0.5 0.272,-0.51 0.309,-0.51C0.336,-0.51 0.359,-0.505 0.38,-0.497C0.401,-0.488 0.418,-0.475 0.432,-0.46C0.445,-0.445 0.456,-0.427 0.463,-0.406C0.469,-0.385 0.473,-0.362 0.473,-0.339L0.473,-0L0.39,-0L0.39,-0.31Z" style="fill:white;fill-rule:nonzero;"/>
                </g>
                <g transform="matrix(30.26,0,0,23,349.397,215.097)">
                    <path d="M0.377,-0.323C0.377,-0.36 0.367,-0.39 0.346,-0.411C0.326,-0.433 0.297,-0.444 0.258,-0.444C0.22,-0.444 0.191,-0.434 0.172,-0.415C0.153,-0.396 0.142,-0.371 0.141,-0.342L0.058,-0.342C0.059,-0.365 0.065,-0.386 0.074,-0.407C0.083,-0.428 0.096,-0.446 0.113,-0.461C0.13,-0.475 0.15,-0.488 0.174,-0.497C0.199,-0.505 0.227,-0.51 0.258,-0.51C0.285,-0.51 0.311,-0.506 0.336,-0.499C0.361,-0.492 0.382,-0.48 0.401,-0.464C0.419,-0.447 0.433,-0.426 0.444,-0.4C0.455,-0.373 0.46,-0.341 0.46,-0.304L0.46,-0L0.38,-0L0.38,-0.098L0.378,-0.098C0.365,-0.064 0.345,-0.038 0.316,-0.019C0.287,0 0.254,0.01 0.215,0.01C0.191,0.01 0.169,0.006 0.148,-0.001C0.127,-0.008 0.108,-0.018 0.092,-0.031C0.076,-0.044 0.064,-0.061 0.055,-0.08C0.046,-0.099 0.041,-0.121 0.041,-0.145C0.041,-0.17 0.046,-0.192 0.057,-0.21C0.068,-0.227 0.082,-0.242 0.1,-0.253C0.117,-0.264 0.138,-0.273 0.162,-0.279C0.185,-0.285 0.21,-0.289 0.237,-0.292L0.377,-0.307L0.377,-0.323ZM0.235,-0.056C0.279,-0.056 0.314,-0.069 0.339,-0.096C0.364,-0.123 0.377,-0.163 0.377,-0.217L0.377,-0.244L0.244,-0.229C0.207,-0.225 0.179,-0.216 0.16,-0.202C0.141,-0.188 0.131,-0.168 0.131,-0.141C0.131,-0.116 0.141,-0.096 0.161,-0.08C0.181,-0.064 0.206,-0.056 0.235,-0.056Z" style="fill:white;fill-rule:nonzero;"/>
                </g>
                <g transform="matrix(30.26,0,0,23,365.466,215.097)">
                    <path d="M0.39,-0.31C0.39,-0.351 0.381,-0.384 0.363,-0.406C0.344,-0.43 0.315,-0.441 0.275,-0.441C0.234,-0.441 0.205,-0.429 0.187,-0.406C0.168,-0.383 0.159,-0.353 0.159,-0.318L0.159,-0L0.076,-0L0.076,-0.5L0.156,-0.5L0.156,-0.402L0.158,-0.402C0.171,-0.436 0.19,-0.463 0.216,-0.482C0.241,-0.5 0.272,-0.51 0.309,-0.51C0.336,-0.51 0.359,-0.505 0.38,-0.497C0.401,-0.488 0.418,-0.475 0.432,-0.46C0.445,-0.445 0.456,-0.427 0.463,-0.406C0.469,-0.385 0.473,-0.362 0.473,-0.339L0.473,-0L0.39,-0L0.39,-0.31Z" style="fill:white;fill-rule:nonzero;"/>
                </g>
                <g transform="matrix(30.26,0,0,23,381.927,215.097)">
                    <path d="M0.047,-0.25C0.047,-0.284 0.051,-0.317 0.061,-0.348C0.07,-0.38 0.083,-0.408 0.101,-0.432C0.119,-0.455 0.141,-0.474 0.169,-0.489C0.196,-0.503 0.227,-0.51 0.262,-0.51C0.301,-0.51 0.336,-0.5 0.365,-0.479C0.394,-0.458 0.415,-0.43 0.429,-0.394L0.431,-0.394L0.431,-0.69L0.514,-0.69L0.514,-0L0.431,-0L0.431,-0.106L0.429,-0.106C0.415,-0.07 0.394,-0.042 0.365,-0.021C0.336,-0 0.301,0.01 0.262,0.01C0.227,0.01 0.196,0.003 0.169,-0.012C0.141,-0.026 0.119,-0.045 0.101,-0.069C0.083,-0.092 0.07,-0.12 0.061,-0.152C0.051,-0.183 0.047,-0.216 0.047,-0.25ZM0.137,-0.25C0.137,-0.195 0.15,-0.149 0.176,-0.112C0.202,-0.075 0.239,-0.056 0.287,-0.056C0.335,-0.056 0.372,-0.075 0.397,-0.112C0.422,-0.149 0.435,-0.195 0.435,-0.25C0.435,-0.305 0.422,-0.352 0.397,-0.389C0.372,-0.426 0.335,-0.444 0.287,-0.444C0.239,-0.444 0.202,-0.426 0.176,-0.389C0.15,-0.352 0.137,-0.305 0.137,-0.25Z" style="fill:white;fill-rule:nonzero;"/>
                </g>
                <g transform="matrix(30.26,0,0,23,102.385,239.385)">
                    <path d="M0.046,-0.25C0.046,-0.283 0.051,-0.316 0.063,-0.347C0.074,-0.378 0.089,-0.406 0.109,-0.43C0.129,-0.454 0.153,-0.473 0.182,-0.488C0.21,-0.503 0.242,-0.51 0.277,-0.51C0.337,-0.51 0.386,-0.495 0.424,-0.465C0.461,-0.434 0.485,-0.39 0.496,-0.333L0.413,-0.333C0.406,-0.373 0.39,-0.402 0.367,-0.419C0.343,-0.436 0.315,-0.444 0.282,-0.444C0.259,-0.444 0.238,-0.439 0.22,-0.429C0.201,-0.418 0.186,-0.404 0.173,-0.387C0.161,-0.369 0.152,-0.348 0.146,-0.325C0.139,-0.302 0.136,-0.277 0.136,-0.25C0.136,-0.223 0.139,-0.197 0.146,-0.173C0.153,-0.15 0.162,-0.129 0.175,-0.112C0.188,-0.095 0.203,-0.081 0.223,-0.071C0.242,-0.061 0.263,-0.056 0.288,-0.056C0.32,-0.056 0.348,-0.065 0.372,-0.083C0.395,-0.1 0.411,-0.129 0.418,-0.169L0.501,-0.169C0.49,-0.112 0.466,-0.068 0.428,-0.037C0.39,-0.006 0.341,0.01 0.281,0.01C0.245,0.01 0.213,0.003 0.184,-0.011C0.155,-0.025 0.13,-0.044 0.11,-0.068C0.089,-0.091 0.074,-0.119 0.063,-0.151C0.051,-0.182 0.046,-0.215 0.046,-0.25Z" style="fill:white;fill-rule:nonzero;"/>
                </g>
                <g transform="matrix(30.26,0,0,23,118.635,239.385)">
                    <path d="M0.155,-0.19C0.155,-0.149 0.164,-0.117 0.182,-0.094C0.2,-0.07 0.229,-0.059 0.268,-0.059C0.31,-0.059 0.339,-0.071 0.356,-0.094C0.373,-0.117 0.381,-0.147 0.381,-0.182L0.381,-0.5L0.464,-0.5L0.464,-0L0.384,-0L0.384,-0.098L0.382,-0.098C0.369,-0.064 0.351,-0.038 0.328,-0.019C0.304,0 0.274,0.01 0.239,0.01C0.212,0.01 0.188,0.005 0.167,-0.004C0.146,-0.013 0.128,-0.025 0.114,-0.04C0.1,-0.055 0.09,-0.074 0.083,-0.095C0.076,-0.116 0.072,-0.138 0.072,-0.161L0.072,-0.5L0.155,-0.5L0.155,-0.19Z" style="fill:white;fill-rule:nonzero;"/>
                </g>
                <g transform="matrix(30.26,0,0,23,134.975,239.385)">
                    <path d="M0.159,-0.3L0.159,-0L0.076,-0L0.076,-0.5L0.156,-0.5L0.156,-0.402L0.158,-0.402C0.171,-0.436 0.19,-0.463 0.216,-0.482C0.241,-0.5 0.272,-0.51 0.309,-0.51L0.309,-0.42L0.291,-0.42C0.251,-0.42 0.219,-0.411 0.195,-0.394C0.171,-0.376 0.159,-0.345 0.159,-0.3Z" style="fill:white;fill-rule:nonzero;"/>
                </g>
                <g transform="matrix(30.26,0,0,23,144.991,239.385)">
                    <path d="M0.159,-0.3L0.159,-0L0.076,-0L0.076,-0.5L0.156,-0.5L0.156,-0.402L0.158,-0.402C0.171,-0.436 0.19,-0.463 0.216,-0.482C0.241,-0.5 0.272,-0.51 0.309,-0.51L0.309,-0.42L0.291,-0.42C0.251,-0.42 0.219,-0.411 0.195,-0.394C0.171,-0.376 0.159,-0.345 0.159,-0.3Z" style="fill:white;fill-rule:nonzero;"/>
                </g>
                <g transform="matrix(30.26,0,0,23,154.493,239.385)">
                    <path d="M0.493,-0.158C0.488,-0.136 0.481,-0.115 0.471,-0.095C0.461,-0.074 0.447,-0.056 0.43,-0.041C0.413,-0.026 0.392,-0.013 0.367,-0.004C0.342,0.005 0.312,0.01 0.278,0.01C0.241,0.01 0.208,0.003 0.179,-0.011C0.15,-0.025 0.126,-0.044 0.107,-0.068C0.087,-0.091 0.072,-0.119 0.062,-0.151C0.051,-0.182 0.046,-0.215 0.046,-0.25C0.046,-0.285 0.051,-0.318 0.061,-0.349C0.07,-0.381 0.085,-0.409 0.104,-0.433C0.123,-0.456 0.147,-0.475 0.175,-0.489C0.204,-0.503 0.237,-0.51 0.274,-0.51C0.311,-0.51 0.345,-0.503 0.374,-0.489C0.403,-0.475 0.428,-0.456 0.448,-0.431C0.467,-0.406 0.482,-0.376 0.491,-0.341C0.5,-0.306 0.502,-0.267 0.499,-0.225L0.13,-0.225C0.132,-0.173 0.147,-0.132 0.175,-0.102C0.203,-0.071 0.24,-0.056 0.286,-0.056C0.307,-0.056 0.326,-0.059 0.341,-0.066C0.356,-0.073 0.368,-0.081 0.377,-0.092C0.386,-0.102 0.393,-0.113 0.398,-0.125C0.403,-0.137 0.407,-0.148 0.41,-0.158L0.493,-0.158ZM0.274,-0.444C0.23,-0.444 0.196,-0.43 0.172,-0.401C0.148,-0.372 0.134,-0.336 0.13,-0.291L0.417,-0.291C0.414,-0.336 0.4,-0.372 0.376,-0.401C0.352,-0.43 0.318,-0.444 0.274,-0.444Z" style="fill:white;fill-rule:nonzero;"/>
                </g>
                <g transform="matrix(30.26,0,0,23,170.984,239.385)">
                    <path d="M0.39,-0.31C0.39,-0.351 0.381,-0.384 0.363,-0.406C0.344,-0.43 0.315,-0.441 0.275,-0.441C0.234,-0.441 0.205,-0.429 0.187,-0.406C0.168,-0.383 0.159,-0.353 0.159,-0.318L0.159,-0L0.076,-0L0.076,-0.5L0.156,-0.5L0.156,-0.402L0.158,-0.402C0.171,-0.436 0.19,-0.463 0.216,-0.482C0.241,-0.5 0.272,-0.51 0.309,-0.51C0.336,-0.51 0.359,-0.505 0.38,-0.497C0.401,-0.488 0.418,-0.475 0.432,-0.46C0.445,-0.445 0.456,-0.427 0.463,-0.406C0.469,-0.385 0.473,-0.362 0.473,-0.339L0.473,-0L0.39,-0L0.39,-0.31Z" style="fill:white;fill-rule:nonzero;"/>
                </g>
                <g transform="matrix(30.26,0,0,23,187.295,239.385)">
                    <path d="M0.112,-0.434L0.021,-0.434L0.021,-0.5L0.112,-0.5L0.112,-0.614L0.195,-0.614L0.195,-0.5L0.322,-0.5L0.322,-0.434L0.195,-0.434L0.195,-0.121C0.195,-0.102 0.199,-0.088 0.207,-0.079C0.216,-0.07 0.23,-0.066 0.251,-0.066L0.318,-0.066L0.318,-0L0.228,-0C0.186,-0 0.156,-0.01 0.139,-0.029C0.121,-0.048 0.112,-0.076 0.112,-0.112L0.112,-0.434Z" style="fill:white;fill-rule:nonzero;"/>
                </g>
                <g transform="matrix(30.26,0,0,23,205.208,239.385)">
                    <rect x="0.076" y="-0.69" width="0.083" height="0.69" style="fill:white;"/>
                </g>
                <g transform="matrix(30.26,0,0,23,212.32,239.385)">
                    <path d="M0.493,-0.158C0.488,-0.136 0.481,-0.115 0.471,-0.095C0.461,-0.074 0.447,-0.056 0.43,-0.041C0.413,-0.026 0.392,-0.013 0.367,-0.004C0.342,0.005 0.312,0.01 0.278,0.01C0.241,0.01 0.208,0.003 0.179,-0.011C0.15,-0.025 0.126,-0.044 0.107,-0.068C0.087,-0.091 0.072,-0.119 0.062,-0.151C0.051,-0.182 0.046,-0.215 0.046,-0.25C0.046,-0.285 0.051,-0.318 0.061,-0.349C0.07,-0.381 0.085,-0.409 0.104,-0.433C0.123,-0.456 0.147,-0.475 0.175,-0.489C0.204,-0.503 0.237,-0.51 0.274,-0.51C0.311,-0.51 0.345,-0.503 0.374,-0.489C0.403,-0.475 0.428,-0.456 0.448,-0.431C0.467,-0.406 0.482,-0.376 0.491,-0.341C0.5,-0.306 0.502,-0.267 0.499,-0.225L0.13,-0.225C0.132,-0.173 0.147,-0.132 0.175,-0.102C0.203,-0.071 0.24,-0.056 0.286,-0.056C0.307,-0.056 0.326,-0.059 0.341,-0.066C0.356,-0.073 0.368,-0.081 0.377,-0.092C0.386,-0.102 0.393,-0.113 0.398,-0.125C0.403,-0.137 0.407,-0.148 0.41,-0.158L0.493,-0.158ZM0.274,-0.444C0.23,-0.444 0.196,-0.43 0.172,-0.401C0.148,-0.372 0.134,-0.336 0.13,-0.291L0.417,-0.291C0.414,-0.336 0.4,-0.372 0.376,-0.401C0.352,-0.43 0.318,-0.444 0.274,-0.444Z" style="fill:white;fill-rule:nonzero;"/>
                </g>
                <g transform="matrix(30.26,0,0,23,228.811,239.385)">
                    <path d="M0.377,-0.323C0.377,-0.36 0.367,-0.39 0.346,-0.411C0.326,-0.433 0.297,-0.444 0.258,-0.444C0.22,-0.444 0.191,-0.434 0.172,-0.415C0.153,-0.396 0.142,-0.371 0.141,-0.342L0.058,-0.342C0.059,-0.365 0.065,-0.386 0.074,-0.407C0.083,-0.428 0.096,-0.446 0.113,-0.461C0.13,-0.475 0.15,-0.488 0.174,-0.497C0.199,-0.505 0.227,-0.51 0.258,-0.51C0.285,-0.51 0.311,-0.506 0.336,-0.499C0.361,-0.492 0.382,-0.48 0.401,-0.464C0.419,-0.447 0.433,-0.426 0.444,-0.4C0.455,-0.373 0.46,-0.341 0.46,-0.304L0.46,-0L0.38,-0L0.38,-0.098L0.378,-0.098C0.365,-0.064 0.345,-0.038 0.316,-0.019C0.287,0 0.254,0.01 0.215,0.01C0.191,0.01 0.169,0.006 0.148,-0.001C0.127,-0.008 0.108,-0.018 0.092,-0.031C0.076,-0.044 0.064,-0.061 0.055,-0.08C0.046,-0.099 0.041,-0.121 0.041,-0.145C0.041,-0.17 0.046,-0.192 0.057,-0.21C0.068,-0.227 0.082,-0.242 0.1,-0.253C0.117,-0.264 0.138,-0.273 0.162,-0.279C0.185,-0.285 0.21,-0.289 0.237,-0.292L0.377,-0.307L0.377,-0.323ZM0.235,-0.056C0.279,-0.056 0.314,-0.069 0.339,-0.096C0.364,-0.123 0.377,-0.163 0.377,-0.217L0.377,-0.244L0.244,-0.229C0.207,-0.225 0.179,-0.216 0.16,-0.202C0.141,-0.188 0.131,-0.168 0.131,-0.141C0.131,-0.116 0.141,-0.096 0.161,-0.08C0.181,-0.064 0.206,-0.056 0.235,-0.056Z" style="fill:white;fill-rule:nonzero;"/>
                </g>
                <g transform="matrix(30.26,0,0,23,244.879,239.385)">
                    <path d="M0.397,-0L0.159,-0.277L0.159,-0L0.076,-0L0.076,-0.69L0.159,-0.69L0.159,-0.283L0.387,-0.5L0.493,-0.5L0.262,-0.28L0.502,-0L0.397,-0Z" style="fill:white;fill-rule:nonzero;"/>
                </g>
                <g transform="matrix(30.26,0,0,23,260.191,239.385)">
                    <path d="M0.377,-0.323C0.377,-0.36 0.367,-0.39 0.346,-0.411C0.326,-0.433 0.297,-0.444 0.258,-0.444C0.22,-0.444 0.191,-0.434 0.172,-0.415C0.153,-0.396 0.142,-0.371 0.141,-0.342L0.058,-0.342C0.059,-0.365 0.065,-0.386 0.074,-0.407C0.083,-0.428 0.096,-0.446 0.113,-0.461C0.13,-0.475 0.15,-0.488 0.174,-0.497C0.199,-0.505 0.227,-0.51 0.258,-0.51C0.285,-0.51 0.311,-0.506 0.336,-0.499C0.361,-0.492 0.382,-0.48 0.401,-0.464C0.419,-0.447 0.433,-0.426 0.444,-0.4C0.455,-0.373 0.46,-0.341 0.46,-0.304L0.46,-0L0.38,-0L0.38,-0.098L0.378,-0.098C0.365,-0.064 0.345,-0.038 0.316,-0.019C0.287,0 0.254,0.01 0.215,0.01C0.191,0.01 0.169,0.006 0.148,-0.001C0.127,-0.008 0.108,-0.018 0.092,-0.031C0.076,-0.044 0.064,-0.061 0.055,-0.08C0.046,-0.099 0.041,-0.121 0.041,-0.145C0.041,-0.17 0.046,-0.192 0.057,-0.21C0.068,-0.227 0.082,-0.242 0.1,-0.253C0.117,-0.264 0.138,-0.273 0.162,-0.279C0.185,-0.285 0.21,-0.289 0.237,-0.292L0.377,-0.307L0.377,-0.323ZM0.235,-0.056C0.279,-0.056 0.314,-0.069 0.339,-0.096C0.364,-0.123 0.377,-0.163 0.377,-0.217L0.377,-0.244L0.244,-0.229C0.207,-0.225 0.179,-0.216 0.16,-0.202C0.141,-0.188 0.131,-0.168 0.131,-0.141C0.131,-0.116 0.141,-0.096 0.161,-0.08C0.181,-0.064 0.206,-0.056 0.235,-0.056Z" style="fill:white;fill-rule:nonzero;"/>
                </g>
                <g transform="matrix(30.26,0,0,23,276.259,239.385)">
                    <path d="M0.432,-0.017L0.432,-0.126L0.43,-0.126C0.416,-0.09 0.395,-0.062 0.366,-0.041C0.337,-0.02 0.302,-0.01 0.263,-0.01C0.228,-0.01 0.197,-0.017 0.17,-0.029C0.142,-0.043 0.12,-0.06 0.102,-0.083C0.084,-0.106 0.07,-0.132 0.062,-0.163C0.053,-0.194 0.048,-0.226 0.048,-0.26C0.048,-0.294 0.053,-0.326 0.062,-0.357C0.07,-0.388 0.084,-0.414 0.102,-0.437C0.12,-0.46 0.142,-0.477 0.17,-0.491C0.197,-0.503 0.228,-0.51 0.263,-0.51C0.302,-0.51 0.337,-0.5 0.366,-0.479C0.395,-0.458 0.416,-0.43 0.43,-0.394L0.432,-0.394L0.432,-0.5L0.515,-0.5L0.515,-0.017C0.515,0.039 0.496,0.086 0.459,0.123C0.422,0.161 0.367,0.18 0.295,0.18C0.229,0.18 0.178,0.165 0.142,0.135C0.106,0.105 0.085,0.065 0.078,0.014L0.161,0.014C0.166,0.049 0.182,0.075 0.207,0.09C0.233,0.106 0.262,0.114 0.295,0.114C0.334,0.114 0.366,0.103 0.393,0.081C0.419,0.06 0.432,0.027 0.432,-0.017ZM0.138,-0.26C0.138,-0.205 0.151,-0.16 0.177,-0.127C0.203,-0.093 0.24,-0.076 0.288,-0.076C0.336,-0.076 0.373,-0.093 0.398,-0.127C0.423,-0.16 0.436,-0.205 0.436,-0.26C0.436,-0.315 0.423,-0.36 0.398,-0.394C0.373,-0.427 0.336,-0.444 0.288,-0.444C0.24,-0.444 0.203,-0.427 0.177,-0.394C0.151,-0.36 0.138,-0.315 0.138,-0.26Z" style="fill:white;fill-rule:nonzero;"/>
                </g>
                <g transform="matrix(30.26,0,0,23,294.143,239.385)">
                    <path d="M0.493,-0.158C0.488,-0.136 0.481,-0.115 0.471,-0.095C0.461,-0.074 0.447,-0.056 0.43,-0.041C0.413,-0.026 0.392,-0.013 0.367,-0.004C0.342,0.005 0.312,0.01 0.278,0.01C0.241,0.01 0.208,0.003 0.179,-0.011C0.15,-0.025 0.126,-0.044 0.107,-0.068C0.087,-0.091 0.072,-0.119 0.062,-0.151C0.051,-0.182 0.046,-0.215 0.046,-0.25C0.046,-0.285 0.051,-0.318 0.061,-0.349C0.07,-0.381 0.085,-0.409 0.104,-0.433C0.123,-0.456 0.147,-0.475 0.175,-0.489C0.204,-0.503 0.237,-0.51 0.274,-0.51C0.311,-0.51 0.345,-0.503 0.374,-0.489C0.403,-0.475 0.428,-0.456 0.448,-0.431C0.467,-0.406 0.482,-0.376 0.491,-0.341C0.5,-0.306 0.502,-0.267 0.499,-0.225L0.13,-0.225C0.132,-0.173 0.147,-0.132 0.175,-0.102C0.203,-0.071 0.24,-0.056 0.286,-0.056C0.307,-0.056 0.326,-0.059 0.341,-0.066C0.356,-0.073 0.368,-0.081 0.377,-0.092C0.386,-0.102 0.393,-0.113 0.398,-0.125C0.403,-0.137 0.407,-0.148 0.41,-0.158L0.493,-0.158ZM0.274,-0.444C0.23,-0.444 0.196,-0.43 0.172,-0.401C0.148,-0.372 0.134,-0.336 0.13,-0.291L0.417,-0.291C0.414,-0.336 0.4,-0.372 0.376,-0.401C0.352,-0.43 0.318,-0.444 0.274,-0.444Z" style="fill:white;fill-rule:nonzero;"/>
                </g>
            </g>
        </g>
    </g>
</svg>
