<?xml version="1.0" encoding="UTF-8" standalone="no"?> <!-- Created with Vectornator for iOS (http://vectornator.io/) --><!DOCTYPE svg PUBLIC "-//W3C//DTD SVG 1.1//EN" "http://www.w3.org/Graphics/SVG/1.1/DTD/svg11.dtd">
<svg style="fill-rule:evenodd;clip-rule:evenodd;stroke-linecap:round;stroke-linejoin:round;" xmlns:vectornator="http://vectornator.io" xmlns:xlink="http://www.w3.org/1999/xlink" xmlns="http://www.w3.org/2000/svg" xml:space="preserve" version="1.1" viewBox="0 0 165 105">
<metadata>
<vectornator:setting key="DimensionsVisible" value="1"/>
<vectornator:setting key="SnapToGrid" value="0"/>
<vectornator:setting key="IsolateActiveLayer" value="0"/>
<vectornator:setting key="SnapToPoints" value="0"/>
<vectornator:setting key="GuidesVisible" value="1"/>
<vectornator:setting key="RulersVisible" value="1"/>
<vectornator:setting key="CMYKEnabledKey" value="0"/>
<vectornator:setting key="SnapToEdges" value="0"/>
<vectornator:setting key="OutlineMode" value="0"/>
<vectornator:setting key="DisplayWhiteBackground" value="0"/>
<vectornator:setting key="idAngle" value="45"/>
<vectornator:setting key="SnapToGuides" value="1"/>
<vectornator:setting key="GridSpacing" value="36"/>
<vectornator:setting key="Units" value="Pixels"/>
<vectornator:setting key="DynamicGuides" value="0"/>
<vectornator:setting key="New" value="1"/>
</metadata>
<defs/>
<g id="Layer 1" vectornator:layerName="Layer 1">
<path stroke="#000000" stroke-width="1" d="M27.8007+28.1064C27.8007+27.4993+28.0723+25.7419+27.8007+26.285C26.5932+28.7+26.7847+31.6007+25.9793+34.1779C23.9464+40.6831+21.459+47.1317+19.3007+53.6065C15.7544+64.2454+10.9322+74.4095+7.76495+85.1781C5.98235+91.2389+4.91084+97.3832+2.90778+103.392" fill="none" stroke-linecap="round" opacity="1" stroke-linejoin="round"/>
<path stroke="#000000" stroke-width="1" d="M28.4079+25.6778C38.573+25.6778+48.346+24.6045+58.158+22.6421" fill="none" stroke-linecap="round" opacity="1" stroke-linejoin="round"/>
<path stroke="#000000" stroke-width="1" d="M66.923+9.78883C66.923+9.26465+66.7283+7.72962+66.923+8.2163C67.9821+10.864+66.8649+16.411+69.8059+18.1756C72.4707+19.7745+73.0841+11.3184+75.5719+12.1476C77.7572+12.8761+77.8197+18.1252+81.5999+16.8652C83.2648+16.3102+86.9022+10.266+88.1521+11.0993C89.0816+11.7189+88.3186+14.2252+89.7246+14.5064C90.5791+14.6773+91.6789+13.1011+92.6075+13.7201C95.5497+15.6816+102.052+17.4435+105.712+15.8168C111.882+13.0745+118.415+2.20196+125.368+2.97455C128.734+3.34845+126.659+12.9143+129.038+15.2927C130.828+17.0825+133.448+13.8341+135.328+13.4581C136.794+13.1647+137.852+14.534+139.259+14.7685C144.248+15.5999+149.33+14.4693+153.936+12.9339" fill="none" stroke-linecap="round" opacity="1" stroke-linejoin="round"/>
<path stroke="#000000" stroke-width="1" d="M67.537+28.6572C67.4236+28.3473+67.1082+27.6868+67.471+27.3978C67.6419+27.2617+67.6045+27.8207+67.607+28.0392C67.6175+28.9376+67.4049+29.8246+67.3038+30.7174C67.1645+31.9472+66.967+33.1934+66.8839+34.4256C66.7456+36.477+66.76+38.7933+67.0121+38.8219C67.9479+38.9278+68.3786+36.5432+68.5748+36.0776C69.0667+34.9103+72.5635+26.5211+73.4493+26.1968C73.739+26.0908+73.887+29.1445+73.9235+29.3803C74.0321+30.0823+75.1128+36.8952+76.8386+36.8047C78.8289+36.7003+78.6828+33.7599+80.166+33.217C80.6527+33.0388+83.4902+35.1579+84.3057+35.3549C85.9112+35.7429+86.9774+35.0153+88.5193+34.9974C90.7953+34.971+92.5344+36.664+94.8124+36.5446C96.6998+36.4456+98.1695+35.1463+100.013+34.8382C101.063+34.6628+102.839+35.9611+103.034+35.8062C103.853+35.1533+104.606+32.1299+105.241+31.0484C105.554+30.5154+105.867+29.0101+106.252+29.4936C106.539+29.8536+103.349+37.109+105.09+37.9169C106.905+38.7593+110.915+31.3201+111.814+30.1234C112.052+29.8074+114.059+27.8256+114.427+29.1673C114.998+31.2491+112.11+33.6277+112.856+35.6664C113.1+36.3314+116.104+34.1562+116.774+34.2321C118.207+34.3944+119.465+34.9629+120.825+35.3167C121.884+35.5926+123.148+35.1604+124.191+35.0719C125.204+34.9859+126.268+35.5077+127.281+35.4218C128.915+35.2831+131.054+34.2174+132.505+33.5094C133.274+33.1341+138.191+29.5327+136.637+28.3436C134.225+26.4978+128.741+31.3903+129.528+34.0069C130.427+36.9968+136.363+32.8731+137.796+32.8565C139.958+32.8314+141.998+33.7379+144.159+33.7856C150.332+33.922+157.209+33.2543+163.03+31.1233" fill="none" stroke-linecap="round" opacity="1" stroke-linejoin="round"/>
<path stroke="#000000" stroke-width="1" d="M103.318+9.3392C111.955+8.88616+120.397+8.27632+128.988+7.44665C131.978+7.15786+135.046+7.40179+138.01+7.00757" fill="none" stroke-linecap="round" opacity="1" stroke-linejoin="round"/>
<path stroke="#000000" stroke-width="1" d="M27.8007+28.1064C27.8007+27.4993+28.0723+25.7419+27.8007+26.285C26.5932+28.7+26.7847+31.6007+25.9793+34.1779C23.9464+40.6831+21.459+47.1317+19.3007+53.6065C15.7544+64.2454+10.9322+74.4095+7.76495+85.1781C5.98235+91.2389+4.91084+97.3832+2.90778+103.392" fill="none" stroke-linecap="round" opacity="1" stroke-linejoin="round"/>
<path stroke="#000000" stroke-width="1" d="M28.4079+25.6778C38.573+25.6778+48.346+24.6045+58.158+22.6421" fill="none" stroke-linecap="round" opacity="1" stroke-linejoin="round"/>
<path stroke="#000000" stroke-width="1" d="M66.923+9.78883C66.923+9.26465+66.7283+7.72962+66.923+8.2163C67.9821+10.864+66.8649+16.411+69.8059+18.1756C72.4707+19.7745+73.0841+11.3184+75.5719+12.1476C77.7572+12.8761+77.8197+18.1252+81.5999+16.8652C83.2648+16.3102+86.9022+10.266+88.1521+11.0993C89.0816+11.7189+88.3186+14.2252+89.7246+14.5064C90.5791+14.6773+91.6789+13.1011+92.6075+13.7201C95.5497+15.6816+102.052+17.4435+105.712+15.8168C111.882+13.0745+118.415+2.20196+125.368+2.97455C128.734+3.34845+126.659+12.9143+129.038+15.2927C130.828+17.0825+133.448+13.8341+135.328+13.4581C136.794+13.1647+137.852+14.534+139.259+14.7685C144.248+15.5999+149.33+14.4693+153.936+12.9339" fill="none" stroke-linecap="round" opacity="1" stroke-linejoin="round"/>
<path stroke="#000000" stroke-width="1" d="M67.537+28.6572C67.4236+28.3473+67.1082+27.6868+67.471+27.3978C67.6419+27.2617+67.6045+27.8207+67.607+28.0392C67.6175+28.9376+67.4049+29.8246+67.3038+30.7174C67.1645+31.9472+66.967+33.1934+66.8839+34.4256C66.7456+36.477+66.76+38.7933+67.0121+38.8219C67.9479+38.9278+68.3786+36.5432+68.5748+36.0776C69.0667+34.9103+72.5635+26.5211+73.4493+26.1968C73.739+26.0908+73.887+29.1445+73.9235+29.3803C74.0321+30.0823+75.1128+36.8952+76.8386+36.8047C78.8289+36.7003+78.6828+33.7599+80.166+33.217C80.6527+33.0388+83.4902+35.1579+84.3057+35.3549C85.9112+35.7429+86.9774+35.0153+88.5193+34.9974C90.7953+34.971+92.5344+36.664+94.8124+36.5446C96.6998+36.4456+98.1695+35.1463+100.013+34.8382C101.063+34.6628+102.839+35.9611+103.034+35.8062C103.853+35.1533+104.606+32.1299+105.241+31.0484C105.554+30.5154+105.867+29.0101+106.252+29.4936C106.539+29.8536+103.349+37.109+105.09+37.9169C106.905+38.7593+110.915+31.3201+111.814+30.1234C112.052+29.8074+114.059+27.8256+114.427+29.1673C114.998+31.2491+112.11+33.6277+112.856+35.6664C113.1+36.3314+116.104+34.1562+116.774+34.2321C118.207+34.3944+119.465+34.9629+120.825+35.3167C121.884+35.5926+123.148+35.1604+124.191+35.0719C125.204+34.9859+126.268+35.5077+127.281+35.4218C128.915+35.2831+131.054+34.2174+132.505+33.5094C133.274+33.1341+138.191+29.5327+136.637+28.3436C134.225+26.4978+128.741+31.3903+129.528+34.0069C130.427+36.9968+136.363+32.8731+137.796+32.8565C139.958+32.8314+141.998+33.7379+144.159+33.7856C150.332+33.922+157.209+33.2543+163.03+31.1233" fill="none" stroke-linecap="round" opacity="1" stroke-linejoin="round"/>
<path stroke="#000000" stroke-width="1" d="M103.318+9.3392C111.955+8.88616+120.397+8.27632+128.988+7.44665C131.978+7.15786+135.046+7.40179+138.01+7.00757" fill="none" stroke-linecap="round" opacity="1" stroke-linejoin="round"/>
</g>
</svg>
