<?xml version="1.0" encoding="UTF-8" standalone="no"?> <!-- Created with Vectornator for iOS (http://vectornator.io/) --><!DOCTYPE svg PUBLIC "-//W3C//DTD SVG 1.1//EN" "http://www.w3.org/Graphics/SVG/1.1/DTD/svg11.dtd">
<svg style="fill-rule:evenodd;clip-rule:evenodd;stroke-linecap:round;stroke-linejoin:round;" xmlns:vectornator="http://vectornator.io" xmlns:xlink="http://www.w3.org/1999/xlink" xmlns="http://www.w3.org/2000/svg" xml:space="preserve" version="1.1" viewBox="0 0 127.27 43.1364">
<metadata>
<vectornator:setting key="DimensionsVisible" value="1"/>
<vectornator:setting key="IsolateActiveLayer" value="0"/>
<vectornator:setting key="New" value="1"/>
<vectornator:setting key="SnapToPoints" value="0"/>
<vectornator:setting key="OutlineMode" value="0"/>
<vectornator:setting key="RulersVisible" value="1"/>
<vectornator:setting key="GuidesVisible" value="1"/>
<vectornator:setting key="CMYKEnabledKey" value="0"/>
<vectornator:setting key="SnapToEdges" value="0"/>
<vectornator:setting key="DisplayWhiteBackground" value="0"/>
<vectornator:setting key="idAngle" value="45"/>
<vectornator:setting key="SnapToGuides" value="1"/>
<vectornator:setting key="Units" value="Pixels"/>
<vectornator:setting key="SnapToGrid" value="0"/>
<vectornator:setting key="DynamicGuides" value="0"/>
<vectornator:setting key="GridSpacing" value="36"/>
</metadata>
<defs/>
<g id="Layer 1" vectornator:layerName="Layer 1">
<path stroke="#000000" stroke-width="1" d="M0.620097+40.2577C0.197925+40.2577+3.30644+37.2487+3.80474+36.7192C6.11997+34.2593+8.64069+32.0013+11.0587+29.6423C15.2062+25.5959+18.7746+21.3726+23.6203+18.1421" fill="none" stroke-linecap="round" opacity="1" stroke-linejoin="round"/>
<path stroke="#000000" stroke-width="1" d="M24.1511+18.1421C23.4291+17.7811+27.6671+17.4652+28.2204+17.4344C30.2835+17.3198+32.3502+17.051+34.4127+16.9037C41.4882+16.3983+48.5698+15.9304+55.6437+15.4883C56.3513+15.444+64.3059+15.1416+64.49+14.9575C64.9365+14.511+63.9223+14.4267+63.7823+14.4267" fill="none" stroke-linecap="round" opacity="1" stroke-linejoin="round"/>
<path stroke="#000000" stroke-width="1" d="M68.5148+15.2899C68.0411+16.0771+69.4594+13.4007+69.4965+13.3178C69.9023+12.4118+70.6046+10.7393+70.9283+9.87375C71.7781+7.60138+72.3834+5.27428+73.306+3.02649C73.6188+2.26443+73.5548+0.931481+74.3671+0.794626C74.8442+0.714246+74.1544+1.73884+74.0301+2.20644C73.7995+3.07445+73.6158+4.09439+73.4692+4.96995C72.9931+7.81329+72.7743+10.4931+73.3641+13.3642C73.4528+13.796+74.1423+15.3562+74.7853+15.2189C75.5229+15.0615+77.199+11.1998+77.4728+10.4547C77.7778+9.62515+78.0894+8.84432+77.9759+8.80959C77.8276+8.76425+77.6249+9.57687+77.6245+9.64896C77.6216+10.2049+77.8889+12.0021+78.5476+12.2035C79.5358+12.5056+80.2646+10.8785+80.821+10.3423C80.8993+10.2668+80.9803+10.0794+81.0736+10.1355C81.2932+10.2676+81.2465+11.4567+81.5158+11.7856C82.0531+12.4418+85.7617+13.3216+86.5641+13.2345C88.8431+12.9871+90.7242+10.1315+92.2077+8.71133C92.7218+8.21921+93.8862+7.2822+93.983+7.54994C94.595+9.24362+90.726+12.4389+92.5963+13.9428C94.2659+15.2854+98.2619+9.36862+99.5773+9.07114C100.894+8.77328+97.9264+13.2152+100.303+12.8908C101.364+12.746+102.97+11.2168+103.901+11.3401C104.641+11.438+105.129+12.0827+105.953+12.0621C106.898+12.0385+107.723+11.7463+108.601+11.4517C109.424+11.1757+110.337+11.4857+111.204+11.3006C113.082+10.8996+114.952+10.2175+116.84+9.89948C117.749+9.74618+118.687+10.1694+119.596+10.1742C120.834+10.1808+122.232+9.85331+123.449+9.64821" fill="none" stroke-linecap="round" opacity="1" stroke-linejoin="round"/>
<path stroke="#000000" stroke-width="1" d="M70.0585+30.0584C68.7971+31.3845+70.5471+26.8011+70.711+26.3761C71.5791+24.125+72.3886+21.2818+73.8873+19.3943C74.4412+18.6967+75.343+17.5584+76.3746+18.0719C79.3006+19.5285+77.3327+27.7603+80.1751+29.1752C82.5578+30.3613+84.2572+24.1314+86.6967+24.2578C86.9891+24.2729+88.3184+26.2281+89.496+26.2498C90.4355+26.2672+91.3427+25.7334+92.2573+25.5793C94.2589+25.2421+96.438+25.0043+98.4606+25.1091C98.9202+25.1329+100.212+25.322+100.565+25.6579C100.843+25.922+100.593+26.739+101.332+26.5552C101.814+26.4354+102.578+25.4519+102.901+25.1412C104.248+23.843+106.013+22.0275+108.034+21.9769C110.111+21.9249+111.786+23.9103+113.876+24.2366C115.708+24.5225+117.613+23.8873+119.454+23.9538C121.93+24.0433+124.399+24.385+126.835+23.6546" fill="none" stroke-linecap="round" opacity="1" stroke-linejoin="round"/>
</g>
</svg>
